STARTFONT 2.1
COMMENT         Start Project: 97-28-5    Closed Project: 97-??-?? 
COMMENT         Created & Calculated by Phaisarn Techajaruwong,TITech1997
COMMENT 2000.04.26 Theppitak Karoonboonyanan:
COMMENT            - ThaiWindows extended character adjusted
COMMENT            - encoding changed from iso8859-11 to tis620-2
FONT -phaisarn-sanserif-bold-r-normal--8-80-100-100-m-80-tis620-2
SIZE 12 100 100
FONTBOUNDINGBOX 16 20 -8 -5
STARTPROPERTIES 22
FOUNDRY "phaisarn"
FAMILY_NAME "sanserif"
WEIGHT_NAME "bold"
SLANT "r"
SETWIDTH_NAME "normal"
ADD_STYLE_NAME ""
PIXEL_SIZE 8
POINT_SIZE 80
RESOLUTION_X 100
RESOLUTION_Y 100
SPACING "m"
AVERAGE_WIDTH 20
CHARSET_REGISTRY "tis620"
CHARSET_ENCODING "2"
STRIKEOUT_ASCENT 6
STRIKEOUT_DESCENT 0
X_HEIGHT 8
FACE_NAME "Pt Thai Bitmap font for X-Windows"
COPYRIGHT "Copyright by Pt,TITech 1997"
FONT_ASCENT 14
FONT_DESCENT 4
DEFAULT_CHAR 32
ENDPROPERTIES
CHARS 215
STARTCHAR SPACE 
ENCODING 32
SWIDTH 480 0
DWIDTH 6 0
BBX 6 14 0 0
BITMAP
00
00
00
00
00
00
00
00
00
00
00
00
00
00
ENDCHAR
STARTCHAR EXCLAMATION_MARK
ENCODING 33
SWIDTH 480 0
DWIDTH 3 0
BBX 2 10 0 0
BITMAP
c0
c0
c0
c0
c0
c0
c0
00
c0
c0
ENDCHAR
STARTCHAR QUOTATION_MARK
ENCODING 34
SWIDTH 480 0
DWIDTH 7 0
BBX 6 4 0 6
BITMAP
cc
cc
cc
cc
ENDCHAR
STARTCHAR NUMBER_SIGN
ENCODING 35
SWIDTH 480 0
DWIDTH 9 0
BBX 8 10 0 0
BITMAP
36
36
7f
36
36
6c
6c
fe
6c
6c
ENDCHAR
STARTCHAR DOLLAR_SIGN
ENCODING 36
SWIDTH 480 0
DWIDTH 7 0
BBX 6 11 0 0
BITMAP
30
78
cc
cc
c0
78
0c
0c
cc
78
30
ENDCHAR
STARTCHAR PERCENT_SIGN
ENCODING 37
SWIDTH 480 0
DWIDTH 12 0
BBX 11 10 0 0
BITMAP
7060
d8c0
d980
db00
7600
0dc0
1b60
3360
6360
c1c0
ENDCHAR
STARTCHAR AMPERSAND
ENCODING 38
SWIDTH 480 0
DWIDTH 8 0
BBX 7 10 0 0
BITMAP
38
6c
6c
6c
38
70
da
ce
cc
7e
ENDCHAR
STARTCHAR APOSTROPHE
ENCODING 39
SWIDTH 480 0
DWIDTH 3 0
BBX 2 4 0 6
BITMAP
c0
c0
c0
c0
ENDCHAR
STARTCHAR LEFT_PARENTHESIS
ENCODING 40
SWIDTH 480 0
DWIDTH 4 0
BBX 3 14 0 -2
BITMAP
60
c0
c0
c0
c0
c0
c0
c0
c0
c0
c0
c0
c0
60
ENDCHAR
STARTCHAR RIGHT_PARENTHESIS
ENCODING 41
SWIDTH 480 0
DWIDTH 4 0
BBX 3 14 0 -2
BITMAP
c0
60
60
60
60
60
60
60
60
60
60
60
60
c0
ENDCHAR
STARTCHAR ASTERISK
ENCODING 42
SWIDTH 480 0
DWIDTH 7 0
BBX 6 5 0 2
BITMAP
30
fc
30
78
48
ENDCHAR
STARTCHAR PLUS_SIGN
ENCODING 43
SWIDTH 480 0
DWIDTH 8 0
BBX 6 5 1 3
BITMAP
30
30
fc
30
30
ENDCHAR
STARTCHAR COMMA
ENCODING 44
SWIDTH 480 0
DWIDTH 4 0
BBX 3 3 0 -1
BITMAP
60
60
c0
ENDCHAR
STARTCHAR HYPHEN-MINUS
ENCODING 45
SWIDTH 480 0
DWIDTH 7 0
BBX 5 1 1 5
BITMAP
f8
ENDCHAR
STARTCHAR FULL_STOP
ENCODING 46
SWIDTH 480 0
DWIDTH 3 0
BBX 2 2 0 0
BITMAP
c0
c0
ENDCHAR
STARTCHAR SOLIDUS
ENCODING 47
SWIDTH 480 0
DWIDTH 5 0
BBX 4 12 0 -1
BITMAP
30
30
30
30
60
60
60
60
c0
c0
c0
c0
ENDCHAR
STARTCHAR ZERO
ENCODING 48
SWIDTH 480 0
DWIDTH 7 0
BBX 6 10 0 0
BITMAP
78
cc
cc
cc
cc
cc
cc
cc
cc
78
ENDCHAR
STARTCHAR ONE
ENCODING 49
SWIDTH 480 0
DWIDTH 5 0
BBX 4 10 0 0
BITMAP
30
f0
30
30
30
30
30
30
30
30
ENDCHAR
STARTCHAR TWO
ENCODING 50
SWIDTH 480 0
DWIDTH 7 0
BBX 6 10 0 0
BITMAP
78
cc
cc
0c
18
30
60
c0
c0
fc
ENDCHAR
STARTCHAR THREE
ENCODING 51
SWIDTH 480 0
DWIDTH 7 0
BBX 6 10 0 0
BITMAP
78
cc
0c
0c
38
0c
0c
0c
cc
78
ENDCHAR
STARTCHAR FOUR
ENCODING 52
SWIDTH 480 0
DWIDTH 7 0
BBX 6 10 0 0
BITMAP
0c
1c
3c
3c
6c
6c
cc
fc
0c
0c
ENDCHAR
STARTCHAR FIVE
ENCODING 53
SWIDTH 480 0
DWIDTH 7 0
BBX 6 10 0 0
BITMAP
fc
c0
c0
c0
f8
cc
0c
0c
cc
78
ENDCHAR
STARTCHAR SIX
ENCODING 54
SWIDTH 480 0
DWIDTH 7 0
BBX 6 10 0 0
BITMAP
78
cc
c0
c0
f8
cc
cc
cc
cc
78
ENDCHAR
STARTCHAR SEVEN
ENCODING 55
SWIDTH 480 0
DWIDTH 7 0
BBX 6 10 0 0
BITMAP
fc
0c
18
18
30
30
30
60
60
60
ENDCHAR
STARTCHAR EIGHT
ENCODING 56
SWIDTH 480 0
DWIDTH 7 0
BBX 6 10 0 0
BITMAP
78
cc
cc
cc
78
cc
cc
cc
cc
78
ENDCHAR
STARTCHAR NINE
ENCODING 57
SWIDTH 480 0
DWIDTH 7 0
BBX 6 10 0 0
BITMAP
78
cc
cc
cc
cc
7c
0c
0c
cc
78
ENDCHAR
STARTCHAR COLON
ENCODING 58
SWIDTH 480 0
DWIDTH 3 0
BBX 2 7 0 0
BITMAP
c0
c0
00
00
00
c0
c0
ENDCHAR
STARTCHAR SEMICOLON
ENCODING 59
SWIDTH 480 0
DWIDTH 4 0
BBX 3 9 0 -1
BITMAP
60
60
00
00
00
00
60
60
c0
ENDCHAR
STARTCHAR LESS-THAN_SIGN
ENCODING 60
SWIDTH 480 0
DWIDTH 7 0
BBX 6 9 0 0
BITMAP
0c
18
30
60
c0
60
30
18
0c
ENDCHAR
STARTCHAR EQUALS_SIGN
ENCODING 61
SWIDTH 480 0
DWIDTH 7 0
BBX 6 4 0 3
BITMAP
fc
00
00
fc
ENDCHAR
STARTCHAR GREATER-THAN_SIGN
ENCODING 62
SWIDTH 480 0
DWIDTH 7 0
BBX 6 9 0 3
BITMAP
c0
60
30
18
0c
18
30
60
c0
ENDCHAR
STARTCHAR QUESTION_MARK
ENCODING 63
SWIDTH 480 0
DWIDTH 7 0
BBX 6 10 0 0
BITMAP
78
cc
cc
0c
18
30
30
00
30
30
ENDCHAR
STARTCHAR COMMERCIAL_AT
ENCODING 64
SWIDTH 480 0
DWIDTH 13 0
BBX 12 13 0 -1
BITMAP
0f00
39c0
6060
6760
cdb0
cdb0
d9b0
db30
db30
6de0
6000
38e0
0f80
ENDCHAR
STARTCHAR A
ENCODING 65
SWIDTH 480 0
DWIDTH 9 0
BBX 8 10 0 0
BITMAP
18
18
3c
3c
24
66
66
7e
c3
c3
ENDCHAR
STARTCHAR B
ENCODING 66
SWIDTH 480 0
DWIDTH 9 0
BBX 8 10 0 0
BITMAP
fe
c3
c3
c3
fe
c3
c3
c3
c3
fe
ENDCHAR
STARTCHAR C
ENCODING 67
SWIDTH 480 0
DWIDTH 8 0
BBX 7 10 0 0
BITMAP
3c
66
c2
c0
c0
c0
c0
c2
66
3c
ENDCHAR
STARTCHAR D
ENCODING 68
SWIDTH 480 0
DWIDTH 9 0
BBX 8 10 0 0
BITMAP
fc
c6
c3
c3
c3
c3
c3
c3
c6
fc
ENDCHAR
STARTCHAR E
ENCODING 69
SWIDTH 480 0
DWIDTH 8 0
BBX 7 10 0 0
BITMAP
fe
c0
c0
c0
fc
c0
c0
c0
c0
fe
ENDCHAR
STARTCHAR F
ENCODING 70
SWIDTH 480 0
DWIDTH 8 0
BBX 7 10 0 0
BITMAP
fe
c0
c0
c0
fc
c0
c0
c0
c0
c0
ENDCHAR
STARTCHAR G
ENCODING 71
SWIDTH 480 0
DWIDTH 9 0
BBX 8 10 0 0
BITMAP
3e
63
c1
c0
c0
cf
c3
c3
63
3d
ENDCHAR
STARTCHAR H
ENCODING 72
SWIDTH 480 0
DWIDTH 9 0
BBX 8 10 0 0
BITMAP
c3
c3
c3
c3
ff
c3
c3
c3
c3
c3
ENDCHAR
STARTCHAR I
ENCODING 73
SWIDTH 480 0
DWIDTH 3 0
BBX 2 10 0 0
BITMAP
c0
c0
c0
c0
c0
c0
c0
c0
c0
c0
ENDCHAR
STARTCHAR J
ENCODING 74
SWIDTH 480 0
DWIDTH 7 0
BBX 6 10 0 0
BITMAP
0c
0c
0c
0c
0c
0c
0c
cc
cc
78
ENDCHAR
STARTCHAR K
ENCODING 75
SWIDTH 480 0
DWIDTH 9 0
BBX 8 10 0 0
BITMAP
c6
cc
d8
f0
e0
f0
d8
cc
c6
c3
ENDCHAR
STARTCHAR L
ENCODING 76
SWIDTH 480 0
DWIDTH 8 0
BBX 7 10 0 0
BITMAP
c0
c0
c0
c0
c0
c0
c0
c0
c0
fe
ENDCHAR
STARTCHAR M
ENCODING 77
SWIDTH 480 0
DWIDTH 11 0
BBX 10 10 0 0
BITMAP
c0c0
e1c0
e1c0
f3c0
f3c0
d2c0
dec0
dec0
ccc0
ccc0
ENDCHAR
STARTCHAR N
ENCODING 78
SWIDTH 480 0
DWIDTH 9 0
BBX 8 10 0 0
BITMAP
c3
e3
f3
f3
db
db
cf
cf
c7
c3
ENDCHAR
STARTCHAR O
ENCODING 79
SWIDTH 480 0
DWIDTH 9 0
BBX 8 10 0 0
BITMAP
3c
66
c3
c3
c3
c3
c3
c3
66
3c
ENDCHAR
STARTCHAR P
ENCODING 80
SWIDTH 480 0
DWIDTH 9 0
BBX 8 10 0 0
BITMAP
fe
c3
c3
c3
c3
fe
c0
c0
c0
c0
ENDCHAR
STARTCHAR Q
ENCODING 81
SWIDTH 480 0
DWIDTH 9 0
BBX 8 10 0 0
BITMAP
3c
66
c3
c3
c3
c3
c3
cf
66
3f
ENDCHAR
STARTCHAR R
ENCODING 82
SWIDTH 480 0
DWIDTH 10 0
BBX 9 10 0 0
BITMAP
fe00
c300
c300
c300
c300
fe00
c300
c300
c300
c180
ENDCHAR
STARTCHAR S
ENCODING 83
SWIDTH 480 0
DWIDTH 8 0
BBX 7 10 0 0
BITMAP
7c
c6
c6
c0
70
1c
06
c6
c6
7c
ENDCHAR
STARTCHAR T
ENCODING 84
SWIDTH 480 0
DWIDTH 9 0
BBX 8 10 0 0
BITMAP
ff
18
18
18
18
18
18
18
18
18
ENDCHAR
STARTCHAR U
ENCODING 85
SWIDTH 480 0
DWIDTH 9 0
BBX 8 10 0 0
BITMAP
c3
c3
c3
c3
c3
c3
c3
c3
66
3c
ENDCHAR
STARTCHAR V
ENCODING 86
SWIDTH 480 0
DWIDTH 9 0
BBX 8 10 0 0
BITMAP
c3
c3
66
66
66
24
3c
3c
18
18
ENDCHAR
STARTCHAR W
ENCODING 87
SWIDTH 480 0
DWIDTH 15 0
BBX 14 10 0 0
BITMAP
c30c
c30c
c30c
6798
6798
34b0
3cf0
1860
1860
1860
ENDCHAR
STARTCHAR X
ENCODING 88
SWIDTH 480 0
DWIDTH 10 0
BBX 9 10 0 0
BITMAP
c180
c180
6300
3600
1c00
1c00
3600
6300
c180
c180
ENDCHAR
STARTCHAR Y
ENCODING 89
SWIDTH 480 0
DWIDTH 11 0
BBX 10 10 0 0
BITMAP
c0c0
c0c0
6180
3300
1e00
0c00
0c00
0c00
0c00
0c00
ENDCHAR
STARTCHAR Z
ENCODING 90
SWIDTH 480 0
DWIDTH 10 0
BBX 9 10 0 0
BITMAP
ff80
0180
0300
0600
0c00
1800
3000
6000
c000
ff80
ENDCHAR
STARTCHAR LEFT_SQUARE_BRACKET
ENCODING 91
SWIDTH 480 0
DWIDTH 4 0
BBX 3 14 0 -2
BITMAP
e0
c0
c0
c0
c0
c0
c0
c0
c0
c0
c0
c0
c0
e0
ENDCHAR
STARTCHAR REVERSE_SOLIDUS
ENCODING 92
SWIDTH 480 0
DWIDTH 5 0
BBX 4 12 0 -1
BITMAP
c0
c0
c0
c0
60
60
60
60
30
30
30
30
ENDCHAR
STARTCHAR RIGHT_SQUARE_BRACKET
ENCODING 93
SWIDTH 480 0
DWIDTH 4 0
BBX 3 14 0 -2
BITMAP
e0
60
60
60
60
60
60
60
60
60
60
60
60
e0
ENDCHAR
STARTCHAR CIRCUMFLEX_ACCENT
ENCODING 94
SWIDTH 480 0
DWIDTH 7 0
BBX 5 3 1 7
BITMAP
20
70
d8
ENDCHAR
STARTCHAR LOW_LINE
ENCODING 95
SWIDTH 480 0
DWIDTH 10 0
BBX 8 1 1 -1
BITMAP
ff
ENDCHAR
STARTCHAR GRAVE_ACCENT
ENCODING 96
SWIDTH 480 0
DWIDTH 4 0
BBX 4 3 0 7
BITMAP
e0
60
30
ENDCHAR
STARTCHAR a
ENCODING 97
SWIDTH 480 0
DWIDTH 7 0
BBX 6 7 0 0
BITMAP
78
cc
3c
6c
cc
cc
7c
ENDCHAR
STARTCHAR b
ENCODING 98
SWIDTH 480 0
DWIDTH 7 0
BBX 6 10 0 0
BITMAP
c0
c0
c0
f8
cc
cc
cc
cc
cc
f8
ENDCHAR
STARTCHAR c
ENCODING 99
SWIDTH 480 0
DWIDTH 7 0
BBX 6 7 0 0
BITMAP
78
cc
c0
c0
c0
cc
78
ENDCHAR
STARTCHAR d
ENCODING 100
SWIDTH 480 0
DWIDTH 7 0
BBX 6 10 0 0
BITMAP
0c
0c
0c
7c
cc
cc
cc
cc
cc
7c
ENDCHAR
STARTCHAR e
ENCODING 101
SWIDTH 480 0
DWIDTH 7 0
BBX 6 7 0 0
BITMAP
78
cc
fc
c0
c0
cc
78
ENDCHAR
STARTCHAR f
ENCODING 102
SWIDTH 480 0
DWIDTH 5 0
BBX 4 10 0 0
BITMAP
30
60
60
f0
60
60
60
60
60
60
ENDCHAR
STARTCHAR g
ENCODING 103
SWIDTH 480 0
DWIDTH 7 0
BBX 6 9 0 -2
BITMAP
7c
cc
cc
cc
cc
cc
7c
0c
78
ENDCHAR
STARTCHAR h
ENCODING 104
SWIDTH 480 0
DWIDTH 7 0
BBX 6 10 0 0
BITMAP
c0
c0
c0
d8
ec
cc
cc
cc
cc
cc
ENDCHAR
STARTCHAR i
ENCODING 105
SWIDTH 480 0
DWIDTH 3 0
BBX 2 10 0 0
BITMAP
c0
c0
00
c0
c0
c0
c0
c0
c0
c0
ENDCHAR
STARTCHAR j
ENCODING 106
SWIDTH 480 0
DWIDTH 4 0
BBX 3 13 0 -3
BITMAP
60
60
00
60
60
60
60
60
60
60
60
60
c0
ENDCHAR
STARTCHAR k
ENCODING 107
SWIDTH 480 0
DWIDTH 7 0
BBX 6 10 0 0
BITMAP
c0
c0
c0
cc
d8
f0
e0
f0
d8
cc
ENDCHAR
STARTCHAR l
ENCODING 108
SWIDTH 480 0
DWIDTH 4 0
BBX 3 10 0 0
BITMAP
c0
c0
c0
c0
c0
c0
c0
c0
c0
c0
ENDCHAR
STARTCHAR m
ENCODING 109
SWIDTH 480 0
DWIDTH 11 0
BBX 10 7 0 0
BITMAP
ff80
ccc0
ccc0
ccc0
ccc0
ccc0
ccc0
ENDCHAR
STARTCHAR n
ENCODING 110
SWIDTH 480 0
DWIDTH 7 0
BBX 6 7 0 0
BITMAP
f8
cc
cc
cc
cc
cc
cc
ENDCHAR
STARTCHAR o
ENCODING 111
SWIDTH 480 0
DWIDTH 7 0
BBX 6 7 0 0
BITMAP
78
cc
cc
cc
cc
cc
78
ENDCHAR
STARTCHAR p
ENCODING 112
SWIDTH 480 0
DWIDTH 7 0
BBX 6 10 0 -3
BITMAP
f8
cc
cc
cc
cc
cc
f8
c0
c0
c0
ENDCHAR
STARTCHAR q
ENCODING 113
SWIDTH 480 0
DWIDTH 7 0
BBX 6 10 0 -3
BITMAP
7c
cc
cc
cc
cc
cc
7c
0c
0c
0c
ENDCHAR
STARTCHAR r
ENCODING 114
SWIDTH 480 0
DWIDTH 5 0
BBX 4 7 0 0
BITMAP
f0
e0
c0
c0
c0
c0
c0
ENDCHAR
STARTCHAR s
ENCODING 115
SWIDTH 480 0
DWIDTH 7 0
BBX 6 7 0 0
BITMAP
78
cc
c0
78
0c
cc
78
ENDCHAR
STARTCHAR t
ENCODING 116
SWIDTH 480 0
DWIDTH 5 0
BBX 4 9 0 0
BITMAP
60
60
f0
60
60
60
60
60
30
ENDCHAR
STARTCHAR u
ENCODING 117
SWIDTH 480 0
DWIDTH 7 0
BBX 6 7 0 0
BITMAP
cc
cc
cc
cc
cc
cc
7c
ENDCHAR
STARTCHAR v
ENCODING 118
SWIDTH 480 0
DWIDTH 9 0
BBX 8 7 0 0
BITMAP
c3
c3
66
66
3c
18
18
ENDCHAR
STARTCHAR w
ENCODING 119
SWIDTH 480 0
DWIDTH 11 0
BBX 10 7 0 0
BITMAP
c0c0
ccc0
6d80
6d80
7f80
3300
3300
ENDCHAR
STARTCHAR x
ENCODING 120
SWIDTH 480 0
DWIDTH 9 0
BBX 8 7 0 0
BITMAP
c3
66
3c
18
3c
66
c3
ENDCHAR
STARTCHAR y
ENCODING 121
SWIDTH 480 0
DWIDTH 8 0
BBX 7 10 0 -3
BITMAP
c6
c6
6c
6c
38
38
30
60
60
c0
ENDCHAR
STARTCHAR z
ENCODING 122
SWIDTH 480 0
DWIDTH 7 0
BBX 6 7 0 0
BITMAP
fc
0c
18
30
60
c0
fc
ENDCHAR
STARTCHAR LEFT_CURLY_BRACKET
ENCODING 123
SWIDTH 480 0
DWIDTH 5 0
BBX 4 13 0 -1
BITMAP
30
60
60
60
60
60
c0
60
60
60
60
60
30
ENDCHAR
STARTCHAR VERTICAL_LINE
ENCODING 124
SWIDTH 480 0
DWIDTH 3 0
BBX 2 13 0 -1
BITMAP
c0
c0
c0
c0
c0
c0
c0
c0
c0
c0
c0
c0
c0
ENDCHAR
STARTCHAR RIGHT_CURLY_BRACKET
ENCODING 125
SWIDTH 480 0
DWIDTH 5 0
BBX 4 13 0 -1
BITMAP
c0
60
60
60
60
60
30
60
60
60
60
60
c0
ENDCHAR
STARTCHAR TILDE
ENCODING 126
SWIDTH 480 0
DWIDTH 8 0
BBX 5 2 0 6
BITMAP
e8
b8
ENDCHAR
STARTCHAR THO_THAN_DESCLESS
ENCODING 128
SWIDTH 480 0
DWIDTH 8 0
BBX 7 10 0 -2
BITMAP
06
7e
c6
06
1e
06
06
06
00
00
ENDCHAR
STARTCHAR SARA_I_LEFT
ENCODING 129
SWIDTH 480 0
DWIDTH 0 0
BBX 6 2 -8 8
BITMAP
70
f8
ENDCHAR
STARTCHAR SARA_II_LEFT
ENCODING 130
SWIDTH 480 0
DWIDTH 0 0
BBX 6 2 -9 8
BITMAP
68
f8
ENDCHAR
STARTCHAR SARA_UE_LEFT
ENCODING 131
SWIDTH 480 0
DWIDTH 0 0
BBX 7 3 -9 8
BITMAP
1c
74
f8
ENDCHAR
STARTCHAR SARA_UEE_LEFT
ENCODING 132
SWIDTH 480 0
DWIDTH 0 0
BBX 7 3 -9 8
BITMAP
14
74
fc
ENDCHAR
STARTCHAR ELLIPSIS
ENCODING 133
SWIDTH 480 0
DWIDTH 9 0
BBX 8 2 0 0
BITMAP
db30
db30
ENDCHAR
STARTCHAR MAI_EK_LOW_LEFT
ENCODING 134
SWIDTH 480 0
DWIDTH 0 0
BBX 2 3 -6 8
BITMAP
c0
c0
c0
ENDCHAR
STARTCHAR MAI_THO_LOW_LEFT
ENCODING 135
SWIDTH 480 0
DWIDTH 0 0
BBX 4 3 -7 8
BITMAP
d0
50
e0
ENDCHAR
STARTCHAR MAI_TRI_LOW_LEFT
ENCODING 136
SWIDTH 480 0
DWIDTH 0 0
BBX 5 3 -8 8
BITMAP
a8
e8
b0
ENDCHAR
STARTCHAR MAI_CHATTAWA_LOW_LEFT
ENCODING 137
SWIDTH 480 0
DWIDTH 0 0
BBX 3 3 -7 8
BITMAP
40
e0
40
ENDCHAR
STARTCHAR THANTHAKHAT_LOW_LEFT
ENCODING 138
SWIDTH 480 0
DWIDTH 0 0
BBX 5 3 -8 8
BITMAP
30
60
70
ENDCHAR
STARTCHAR MAI_EK_LOW
ENCODING 139
SWIDTH 480 0
DWIDTH 0 0
BBX 2 3 -3 8
BITMAP
c0
c0
c0
ENDCHAR
STARTCHAR MAI_THO_LOW
ENCODING 140
SWIDTH 480 0
DWIDTH 0 0
BBX 4 3 -5 8
BITMAP
d0
50
e0
ENDCHAR
STARTCHAR MAI_TRI_LOW
ENCODING 141
SWIDTH 480 0
DWIDTH 0 0
BBX 5 3 -5 8
BITMAP
a8
e8
b0
ENDCHAR
STARTCHAR MAI_CHATTAWA_LOW
ENCODING 142
SWIDTH 480 0
DWIDTH 0 0
BBX 4 3 -5 8
BITMAP
60
f0
60
ENDCHAR
STARTCHAR THANTHAKHAT_LOW
ENCODING 143
SWIDTH 480 0
DWIDTH 0 0
BBX 5 3 -5 8
BITMAP
30
60
70
ENDCHAR
STARTCHAR YO_YING_DESCLESS
ENCODING 144
SWIDTH 480 0
DWIDTH 11 0
BBX 10 9 0 -2
BITMAP
f8c0
ccc0
4cc0
ccc0
ccc0
ccc0
ef80
0000
0000
ENDCHAR
STARTCHAR QUOTE_LEFT
ENCODING 145
SWIDTH 480 0
DWIDTH 4 0
BBX 4 3 0 7
BITMAP
60
c0
c0
ENDCHAR
STARTCHAR QUOTE_RIGHT
ENCODING 146
SWIDTH 480 0
DWIDTH 4 0
BBX 4 3 0 7
BITMAP
60
60
c0
ENDCHAR
STARTCHAR DQUOTE_LEFT
ENCODING 147
SWIDTH 480 0
DWIDTH 7 0
BBX 7 3 0 7
BITMAP
6c
d8
d8
ENDCHAR
STARTCHAR DQUOTE_RIGHT
ENCODING 148
SWIDTH 480 0
DWIDTH 7 0
BBX 7 3 0 7
BITMAP
6c
6c
d8
ENDCHAR
STARTCHAR BULLET
ENCODING 149
SWIDTH 480 0
DWIDTH 7 0
BBX 6 4 0 2
BITMAP
30
78
78
30
ENDCHAR
STARTCHAR EN_DASH
ENCODING 150
SWIDTH 480 0
DWIDTH 10 0
BBX 10 1 0 3
BITMAP
7f10
ENDCHAR
STARTCHAR EM_DASH
ENCODING 151
SWIDTH 480 0
DWIDTH 12 0
BBX 12 1 0 3
BITMAP
7fe0
ENDCHAR
STARTCHAR MAI_HAN-AKAT_LEFT
ENCODING 152
SWIDTH 480 0
DWIDTH 0 0
BBX 5 2 -8 8
BITMAP
d8
f0
ENDCHAR
STARTCHAR NIKHAHIT_LEFT
ENCODING 153
SWIDTH 480 0
DWIDTH 0 0
BBX 4 3 -6 8
BITMAP
60
a0
c0
ENDCHAR
STARTCHAR MAI_TAIKHU_LEFT
ENCODING 154
SWIDTH 480 0
DWIDTH 0 0
BBX 4 4 -8 8
BITMAP
10
60
d0
f0
ENDCHAR
STARTCHAR MAI_EK_LEFT
ENCODING 155
SWIDTH 480 0
DWIDTH 0 0
BBX 2 2 -5 11
BITMAP
c0
c0
ENDCHAR
STARTCHAR MAI_THO_LEFT
ENCODING 156
SWIDTH 480 0
DWIDTH 0 0
BBX 6 2 -8 11
BITMAP
68
30
ENDCHAR
STARTCHAR MAI_TRI_LEFT
ENCODING 157
SWIDTH 480 0
DWIDTH 0 0
BBX 7 2 -7 11
BITMAP
74
58
ENDCHAR
STARTCHAR MAI_CHATTAWA_LEFT
ENCODING 158
SWIDTH 480 0
DWIDTH 0 0
BBX 5 3 -8 11
BITMAP
30
78
30
ENDCHAR
STARTCHAR THANTHAKHAT_LEFT
ENCODING 159
SWIDTH 480 0
DWIDTH 0 0
BBX 5 3 -7 11
BITMAP
30
60
70
ENDCHAR
STARTCHAR NO-BREAK_SPACE
ENCODING 160
SWIDTH 480 0
DWIDTH 10 0
BBX 8 14 0 0
BITMAP
00
00
00
00
00
00
00
00
00
00
00
00
00
00
ENDCHAR
STARTCHAR KO_KAI
ENCODING 161
SWIDTH 480 0
DWIDTH 7 0
BBX 6 7 0 0
BITMAP
f8
cc
4c
cc
cc
cc
cc
ENDCHAR
STARTCHAR KHO_KHAI
ENCODING 162
SWIDTH 480 0
DWIDTH 7 0
BBX 6 7 0 0
BITMAP
ec
6c
6c
6c
6c
6c
78
ENDCHAR
STARTCHAR KHO_KHUAT
ENCODING 163
SWIDTH 480 0
DWIDTH 8 0
BBX 7 7 0 0
BITMAP
b6
f6
36
36
36
36
3c
ENDCHAR
STARTCHAR KHO_KHWAI
ENCODING 164
SWIDTH 480 0
DWIDTH 7 0
BBX 6 7 0 0
BITMAP
78
cc
cc
ec
cc
cc
cc
ENDCHAR
STARTCHAR KHO_KHON
ENCODING 165
SWIDTH 480 0
DWIDTH 7 0
BBX 6 7 0 0
BITMAP
cc
fc
cc
ec
cc
cc
cc
ENDCHAR
STARTCHAR KHO_RAKHANG
ENCODING 166
SWIDTH 480 0
DWIDTH 8 0
BBX 7 7 0 0
BITMAP
a6
e6
66
66
66
76
6c
ENDCHAR
STARTCHAR NGO_NGU
ENCODING 167
SWIDTH 480 0
DWIDTH 7 0
BBX 6 7 0 0
BITMAP
1c
0c
cc
4c
6c
2c
3c
ENDCHAR
STARTCHAR CHO_CHAN
ENCODING 168
SWIDTH 480 0
DWIDTH 8 0
BBX 7 7 0 0
BITMAP
7c
c6
06
1e
06
06
06
ENDCHAR
STARTCHAR CHO_CHING
ENCODING 169
SWIDTH 480 0
DWIDTH 7 0
BBX 6 7 0 0
BITMAP
78
cc
0c
cc
cc
dc
6c
ENDCHAR
STARTCHAR CHO_CHANG
ENCODING 170
SWIDTH 480 0
DWIDTH 8 0
BBX 7 7 0 0
BITMAP
e6
6c
66
66
66
66
7c
ENDCHAR
STARTCHAR SO_SO
ENCODING 171
SWIDTH 480 0
DWIDTH 8 0
BBX 7 7 0 0
BITMAP
a6
ec
66
66
66
66
7c
ENDCHAR
STARTCHAR CHO_CHOE
ENCODING 172
SWIDTH 480 0
DWIDTH 11 0
BBX 10 7 0 0
BITMAP
f8c0
ccc0
4cc0
ccc0
ccc0
cec0
ed80
ENDCHAR
STARTCHAR YO_YING
ENCODING 173
SWIDTH 480 0
DWIDTH 11 0
BBX 10 9 0 -2
BITMAP
f8c0
ccc0
4cc0
ccc0
ccc0
ccc0
efc0
0cc0
0f80
ENDCHAR
STARTCHAR DO_CHADA
ENCODING 174
SWIDTH 480 0
DWIDTH 8 0
BBX 7 9 0 -2
BITMAP
7c
66
26
66
66
66
e6
06
7e
ENDCHAR
STARTCHAR TO_PATAK
ENCODING 175
SWIDTH 480 0
DWIDTH 8 0
BBX 7 9 0 -2
BITMAP
7c
66
26
66
66
66
e6
1e
6e
ENDCHAR
STARTCHAR THO_THAN
ENCODING 176
SWIDTH 480 0
DWIDTH 8 0
BBX 7 10 0 -2
BITMAP
06
7e
c6
06
1e
06
06
06
00
fe
ENDCHAR
STARTCHAR THO_NANGMONTHO
ENCODING 177
SWIDTH 480 0
DWIDTH 8 0
BBX 7 7 0 0
BITMAP
bc
f6
66
66
66
66
66
ENDCHAR
STARTCHAR THO_PHUTHAO
ENCODING 178
SWIDTH 480 0
DWIDTH 11 0
BBX 10 7 0 0
BITMAP
ccc0
fcc0
ccc0
ccc0
ccc0
eec0
6d80
ENDCHAR
STARTCHAR NO_NEN
ENCODING 179
SWIDTH 480 0
DWIDTH 11 0
BBX 10 7 0 0
BITMAP
f8c0
ccc0
4cc0
ccc0
ccc0
cdc0
e6c0
ENDCHAR
STARTCHAR DO_DEK
ENCODING 180
SWIDTH 480 0
DWIDTH 8 0
BBX 7 7 0 0
BITMAP
7c
c6
c6
f6
d6
f6
66
ENDCHAR
STARTCHAR TO_TAO
ENCODING 181
SWIDTH 480 0
DWIDTH 8 0
BBX 7 7 0 0
BITMAP
6c
fe
c6
f6
d6
f6
66
ENDCHAR
STARTCHAR THO_THUNG
ENCODING 182
SWIDTH 480 0
DWIDTH 7 0
BBX 6 7 0 0
BITMAP
f8
cc
4c
cc
cc
cc
ec
ENDCHAR
STARTCHAR THO_THAHAN
ENCODING 183
SWIDTH 480 0
DWIDTH 8 0
BBX 7 7 0 0
BITMAP
ec
76
66
66
66
66
66
ENDCHAR
STARTCHAR THO_THONG
ENCODING 184
SWIDTH 480 0
DWIDTH 7 0
BBX 6 7 0 0
BITMAP
7c
c0
fc
0c
cc
cc
f8
ENDCHAR
STARTCHAR NO_NU
ENCODING 185
SWIDTH 480 0
DWIDTH 8 0
BBX 7 7 0 0
BITMAP
e6
66
66
66
66
6e
36
ENDCHAR
STARTCHAR BO_BAIMAI
ENCODING 186
SWIDTH 480 0
DWIDTH 8 0
BBX 7 7 0 0
BITMAP
e6
66
66
66
66
66
7c
ENDCHAR
STARTCHAR PO_PLA
ENCODING 187
SWIDTH 480 0
DWIDTH 8 0
BBX 7 10 0 0
BITMAP
06
06
06
e6
66
66
66
66
66
7c
ENDCHAR
STARTCHAR PHO_PHUNG
ENCODING 188
SWIDTH 480 0
DWIDTH 9 0
BBX 8 7 0 0
BITMAP
63
c3
db
db
db
db
fe
ENDCHAR
STARTCHAR FO_FA
ENCODING 189
SWIDTH 480 0
DWIDTH 9 0
BBX 8 10 0 0
BITMAP
03
03
03
63
c3
db
db
db
db
fe
ENDCHAR
STARTCHAR PHO_PHAN
ENCODING 190
SWIDTH 480 0
DWIDTH 10 0
BBX 9 7 0 0
BITMAP
ed80
6d80
6d80
6d80
6d80
6d80
7f00
ENDCHAR
STARTCHAR FO_FAN
ENCODING 191
SWIDTH 480 0
DWIDTH 10 0
BBX 9 10 0 0
BITMAP
0180
0180
0180
ed80
6d80
6d80
6d80
6d80
6d80
7f00
ENDCHAR
STARTCHAR PHO_SAMPHAO
ENCODING 192
SWIDTH 480 0
DWIDTH 8 0
BBX 7 7 0 0
BITMAP
7c
66
26
66
66
66
e6
ENDCHAR
STARTCHAR MO_MA
ENCODING 193
SWIDTH 480 0
DWIDTH 8 0
BBX 7 7 0 0
BITMAP
e6
66
66
66
66
76
6c
ENDCHAR
STARTCHAR YO_YAK
ENCODING 194
SWIDTH 480 0
DWIDTH 7 0
BBX 6 7 0 0
BITMAP
6c
cc
ec
6c
cc
cc
f8
ENDCHAR
STARTCHAR RO_RUA
ENCODING 195
SWIDTH 480 0
DWIDTH 6 0
BBX 5 7 0 0
BITMAP
70
d8
c0
f0
18
18
70
ENDCHAR
STARTCHAR RU
ENCODING 196
SWIDTH 480 0
DWIDTH 7 0
BBX 6 9 0 -2
BITMAP
f8
cc
4c
cc
cc
cc
ec
0c
0c
ENDCHAR
STARTCHAR LO_LING
ENCODING 197
SWIDTH 480 0
DWIDTH 7 0
BBX 6 7 0 0
BITMAP
78
cc
0c
7c
cc
cc
ec
ENDCHAR
STARTCHAR LU
ENCODING 198
SWIDTH 480 0
DWIDTH 8 0
BBX 7 9 0 -2
BITMAP
3c
66
26
66
66
66
e6
06
06
ENDCHAR
STARTCHAR WO_WAEN
ENCODING 199
SWIDTH 480 0
DWIDTH 6 0
BBX 5 7 0 0
BITMAP
70
d8
d8
18
18
d8
70
ENDCHAR
STARTCHAR SO_SALA
ENCODING 200
SWIDTH 480 0
DWIDTH 7 0
BBX 6 8 0 0
BITMAP
0c
7c
cc
cc
ec
cc
cc
cc
ENDCHAR
STARTCHAR SO_RUSI
ENCODING 201
SWIDTH 480 0
DWIDTH 8 0
BBX 8 7 0 0
BITMAP
e6
66
66
6f
66
66
7c
ENDCHAR
STARTCHAR SO_SUA
ENCODING 202
SWIDTH 480 0
DWIDTH 7 0
BBX 6 8 0 0
BITMAP
0c
7c
cc
0c
7c
cc
cc
ec
ENDCHAR
STARTCHAR HO_HIP
ENCODING 203
SWIDTH 480 0
DWIDTH 8 0
BBX 7 7 0 0
BITMAP
ee
6c
76
66
66
66
66
ENDCHAR
STARTCHAR LO_CHULA
ENCODING 204
SWIDTH 480 0
DWIDTH 10 0
BBX 10 8 0 0
BITMAP
00c0
ed80
6d80
6d80
6d80
6d80
6d80
7f00
ENDCHAR
STARTCHAR O_ANG
ENCODING 205
SWIDTH 480 0
DWIDTH 7 0
BBX 6 7 0 0
BITMAP
78
cc
0c
ec
cc
cc
f8
ENDCHAR
STARTCHAR HO_NOK_HUK
ENCODING 206
SWIDTH 480 0
DWIDTH 7 0
BBX 6 8 0 0
BITMAP
0c
7c
cc
0c
ec
cc
cc
f8
ENDCHAR
STARTCHAR PAI_YAN_NOI
ENCODING 207
SWIDTH 480 0
DWIDTH 7 0
BBX 6 7 0 0
BITMAP
dc
fc
0c
0c
0c
0c
0c
ENDCHAR
STARTCHAR SARA_A
ENCODING 208
SWIDTH 480 0
DWIDTH 6 0
BBX 5 5 0 1
BITMAP
d8
f0
00
d8
f0
ENDCHAR
STARTCHAR MAI_HAN-AKAT
ENCODING 209
SWIDTH 480 0
DWIDTH 0 0
BBX 5 2 -6 8
BITMAP
d8
f0
ENDCHAR
STARTCHAR SARA_AA
ENCODING 210
SWIDTH 480 0
DWIDTH 5 0
BBX 4 7 0 0
BITMAP
e0
30
30
30
30
30
30
ENDCHAR
STARTCHAR SARA_AM
ENCODING 211
SWIDTH 480 0
DWIDTH 5 0
BBX 8 11 -4 0
BITMAP
60
a0
c0
00
0e
03
03
03
03
03
03
ENDCHAR
STARTCHAR SARA_I
ENCODING 212
SWIDTH 480 0
DWIDTH 0 0
BBX 6 2 -7 8
BITMAP
78
fc
ENDCHAR
STARTCHAR SARA_II
ENCODING 213
SWIDTH 480 0
DWIDTH 0 0
BBX 6 2 -7 8
BITMAP
74
fc
ENDCHAR
STARTCHAR SARA_UE
ENCODING 214
SWIDTH 480 0
DWIDTH 0 0
BBX 7 3 -8 8
BITMAP
0e
7a
fc
ENDCHAR
STARTCHAR SARA_UEE
ENCODING 215
SWIDTH 480 0
DWIDTH 0 0
BBX 7 3 -8 8
BITMAP
0a
7a
fe
ENDCHAR
STARTCHAR SARA_U
ENCODING 216
SWIDTH 480 0
DWIDTH 0 0
BBX 3 2 -4 -3
BITMAP
e0
60
ENDCHAR
STARTCHAR SARA_UU
ENCODING 217
SWIDTH 480 0
DWIDTH 0 0
BBX 6 2 -7 -3
BITMAP
ec
7c
ENDCHAR
STARTCHAR PHINTHU
ENCODING 218
SWIDTH 480 0
DWIDTH 0 0
BBX 2 2 -3 -3
BITMAP
c0
c0
ENDCHAR
STARTCHAR BAHT 
ENCODING 223
SWIDTH 480 0
DWIDTH 9 0
BBX 8 11 0 -1
BITMAP
18
fe
db
db
db
fe
db
db
db
fe
18
ENDCHAR
STARTCHAR SARA_E
ENCODING 224
SWIDTH 480 0
DWIDTH 3 0
BBX 2 7 0 0
BITMAP
c0
c0
c0
c0
c0
c0
c0
ENDCHAR
STARTCHAR SARA_AE
ENCODING 225
SWIDTH 480 0
DWIDTH 6 0
BBX 5 7 0 0
BITMAP
d8
d8
d8
d8
d8
d8
d8
ENDCHAR
STARTCHAR SARA_O
ENCODING 226
SWIDTH 480 0
DWIDTH 4 0
BBX 4 10 0 0
BITMAP
70
e0
60
60
60
60
60
60
60
60
ENDCHAR
STARTCHAR SARA_AI_MAI_MUAN
ENCODING 227
SWIDTH 480 0
DWIDTH 5 0
BBX 4 10 0 0
BITMAP
60
f0
b0
30
30
30
30
30
30
30
ENDCHAR
STARTCHAR SARA_AI_MAI_MALAI
ENCODING 228
SWIDTH 480 0
DWIDTH 5 0
BBX 4 10 0 0
BITMAP
a0
f0
70
30
30
30
30
30
30
30
ENDCHAR
STARTCHAR LAK_KHANG_YAO
ENCODING 229
SWIDTH 480 0
DWIDTH 5 0
BBX 4 10 0 -3
BITMAP
e0
30
30
30
30
30
30
30
30
30
ENDCHAR
STARTCHAR MAI_YAMOK
ENCODING 230
SWIDTH 480 0
DWIDTH 7 0
BBX 6 10 0 -3
BITMAP
d8
fc
8c
cc
0c
0c
0c
0c
0c
0c
ENDCHAR
STARTCHAR MAI_TAIKHU
ENCODING 231
SWIDTH 480 0
DWIDTH 0 0
BBX 6 4 -7 8
BITMAP
04
78
c4
fc
ENDCHAR
STARTCHAR MAI_EK
ENCODING 232
SWIDTH 480 0
DWIDTH 0 0
BBX 2 2 -3 11
BITMAP
c0
c0
ENDCHAR
STARTCHAR MAI_THO
ENCODING 233
SWIDTH 480 0
DWIDTH 0 0
BBX 6 2 -6 11
BITMAP
68
30
ENDCHAR
STARTCHAR MAI_TRI
ENCODING 234
SWIDTH 480 0
DWIDTH 0 0
BBX 7 2 -6 11
BITMAP
74
58
ENDCHAR
STARTCHAR MAI_CHATTAWA
ENCODING 235
SWIDTH 480 0
DWIDTH 0 0
BBX 5 3 -6 11
BITMAP
30
78
30
ENDCHAR
STARTCHAR THANTHAKHAT
ENCODING 236
SWIDTH 480 0
DWIDTH 0 0
BBX 5 3 -5 11
BITMAP
30
60
70
ENDCHAR
STARTCHAR NIKHAHIT
ENCODING 237
SWIDTH 480 0
DWIDTH 0 0
BBX 4 3 -4 8
BITMAP
60
a0
c0
ENDCHAR
STARTCHAR YANAKKAN
ENCODING 238
SWIDTH 480 0
DWIDTH 0 0
BBX 5 5 -5 8
BITMAP
70
c0
60
c0
70
ENDCHAR
STARTCHAR FONGMAN
ENCODING 239
SWIDTH 480 0
DWIDTH 7 0
BBX 6 6 0 0
BITMAP
78
84
b4
b4
84
78
ENDCHAR
STARTCHAR LEK_SUN
ENCODING 240
SWIDTH 480 0
DWIDTH 8 0
BBX 7 7 0 0
BITMAP
7c
c6
c6
c6
c6
c6
7c
ENDCHAR
STARTCHAR LEK_NUNG
ENCODING 241
SWIDTH 480 0
DWIDTH 8 0
BBX 7 7 0 0
BITMAP
7c
c6
c6
d6
f6
76
0c
ENDCHAR
STARTCHAR LEK_SONG
ENCODING 242
SWIDTH 480 0
DWIDTH 9 0
BBX 8 8 0 0
BITMAP
80
c0
db
df
db
db
c3
fe
ENDCHAR
STARTCHAR LEK_SAM
ENCODING 243
SWIDTH 480 0
DWIDTH 8 0
BBX 7 7 0 0
BITMAP
66
fe
d6
c6
c6
e6
66
ENDCHAR
STARTCHAR LEK_SI
ENCODING 244
SWIDTH 480 0
DWIDTH 8 0
BBX 7 9 0 0
BITMAP
06
06
06
7c
c0
dc
d8
d8
fe
ENDCHAR
STARTCHAR LEK_HA
ENCODING 245
SWIDTH 480 0
DWIDTH 8 0
BBX 7 9 0 0
BITMAP
06
06
36
7c
c0
dc
d8
d8
fe
ENDCHAR
STARTCHAR LEK_HOK
ENCODING 246
SWIDTH 480 0
DWIDTH 8 0
BBX 7 9 0 0
BITMAP
c0
60
60
7c
46
06
76
66
7c
ENDCHAR
STARTCHAR LEK_CHET
ENCODING 247
SWIDTH 480 0
DWIDTH 10 0
BBX 9 9 0 0
BITMAP
0100
0180
0180
cd80
fd80
cd80
cd80
cd80
6f00
ENDCHAR
STARTCHAR LEK_PAET
ENCODING 248
SWIDTH 480 0
DWIDTH 9 0
BBX 8 9 0 0
BITMAP
03
03
03
7e
c0
c0
c6
f6
dc
ENDCHAR
STARTCHAR LEK_KAO
ENCODING 249
SWIDTH 480 0
DWIDTH 9 0
BBX 8 9 0 0
BITMAP
03
03
07
7e
d8
cc
c6
f3
71
ENDCHAR
STARTCHAR ANGKHANKHU
ENCODING 250
SWIDTH 480 0
DWIDTH 10 0
BBX 9 7 0 0
BITMAP
dd80
fd80
0d80
0d80
0d80
0d80
0d80
ENDCHAR
STARTCHAR KHOMUT
ENCODING 251
SWIDTH 480 0
DWIDTH 11 0
BBX 10 5 0 1
BITMAP
6000
ed00
8fc0
da00
7000
ENDCHAR
ENDFONT
STARTCHAR SARA_U_LOW
ENCODING 252
SWIDTH 480 0
DWIDTH 0 0
BBX 3 2 -4 -5
BITMAP
e0
60
ENDCHAR
STARTCHAR SARA_UU_LOW
ENCODING 253
SWIDTH 480 0
DWIDTH 0 0
BBX 6 2 -7 -5
BITMAP
ec
7c
ENDCHAR
STARTCHAR PHINTHU_LOW
ENCODING 254
SWIDTH 480 0
DWIDTH 0 0
BBX 2 2 -3 -5
BITMAP
c0
c0
ENDCHAR
