STARTFONT 2.1
COMMENT         Start Project: 97-28-5    Closed Project: 97-??-?? 
COMMENT         Created & Calculated by Phaisarn Techajaruwong,TITech1997
COMMENT 2000.04.26 Theppitak Karoonboonyanan:
COMMENT            - ThaiWindows extended character adjusted
COMMENT            - encoding changed from iso8859-11 to tis620-2
FONT -phaisarn-sanserif-medium-r-normal--8-80-100-100-m-80-tis620-2
SIZE 12 100 100
FONTBOUNDINGBOX 16 20 -8 -5
STARTPROPERTIES 22
FOUNDRY "phaisarn"
FAMILY_NAME "sanserif"
WEIGHT_NAME "medium"
SLANT "r"
SETWIDTH_NAME "normal"
ADD_STYLE_NAME ""
PIXEL_SIZE 8
POINT_SIZE 80
RESOLUTION_X 100
RESOLUTION_Y 100
SPACING "m"
AVERAGE_WIDTH 20
CHARSET_REGISTRY "tis620"
CHARSET_ENCODING "2"
STRIKEOUT_ASCENT 6
STRIKEOUT_DESCENT 0
X_HEIGHT 8
FACE_NAME "Pt Thai Bitmap font for X-Windows"
COPYRIGHT "Copyright by Pt,TITech 1997"
FONT_ASCENT 14
FONT_DESCENT 3
DEFAULT_CHAR 32
ENDPROPERTIES
CHARS 215
STARTCHAR SPACE 
ENCODING 32
SWIDTH 480 0
DWIDTH 6 0
BBX 1 1 0 0
BITMAP
00
ENDCHAR
STARTCHAR EXCLAMATION_MARK
ENCODING 33
SWIDTH 480 0
DWIDTH 3 0
BBX 3 9 0 0
BITMAP
40
40
40
40
40
40
40
00
40
ENDCHAR
STARTCHAR QUOTATION_MARK
ENCODING 34
SWIDTH 480 0
DWIDTH 6 0
BBX 6 3 0 6
BITMAP
48
48
48
ENDCHAR
STARTCHAR NUMBER_SIGN
ENCODING 35
SWIDTH 480 0
DWIDTH 8 0
BBX 8 9 0 0
BITMAP
24
24
7e
24
24
24
7e
24
24
ENDCHAR
STARTCHAR DOLLAR_SIGN
ENCODING 36
SWIDTH 480 0
DWIDTH 7 0
BBX 7 10 0 1
BITMAP
10
38
54
50
30
18
14
54
38
10
ENDCHAR
STARTCHAR PERCENT_SIGN
ENCODING 37
SWIDTH 480 0
DWIDTH 9 0
BBX 8 9 0 0
BITMAP
30
49
32
04
08
10
26
49
06
ENDCHAR
STARTCHAR AMPERSAND
ENCODING 38
SWIDTH 480 0
DWIDTH 7 0
BBX 7 9 0 0
BITMAP
20
50
50
20
20
54
48
48
34
ENDCHAR
STARTCHAR APOSTROPHE
ENCODING 39
SWIDTH 480 0
DWIDTH 3 0
BBX 3 3 0 6
BITMAP
40
40
40
ENDCHAR
STARTCHAR LEFT_PARENTHESIS
ENCODING 40
SWIDTH 480 0
DWIDTH 4 0
BBX 4 11 0 -2
BITMAP
20
40
40
40
40
40
40
40
40
40
20
ENDCHAR
STARTCHAR RIGHT_PARENTHESIS
ENCODING 41
SWIDTH 480 0
DWIDTH 4 0
BBX 4 11 0 -2
BITMAP
40
20
20
20
20
20
20
20
20
20
40
ENDCHAR
STARTCHAR ASTERISK
ENCODING 42
SWIDTH 480 0
DWIDTH 5 0
BBX 5 3 0 5
BITMAP
50
20
50
ENDCHAR
STARTCHAR PLUS_SIGN
ENCODING 43
SWIDTH 480 0
DWIDTH 7 0
BBX 7 5 0 1
BITMAP
10
10
7c
10
10
ENDCHAR
STARTCHAR COMMA
ENCODING 44
SWIDTH 480 0
DWIDTH 5 0
BBX 5 2 0 -1
BITMAP
20
40
ENDCHAR
STARTCHAR HYPHEN-MINUS
ENCODING 45
SWIDTH 480 0
DWIDTH 5 0
BBX 5 1 0 3
BITMAP
70
ENDCHAR
STARTCHAR FULL_STOP
ENCODING 46
SWIDTH 480 0
DWIDTH 3 0
BBX 3 1 0 0
BITMAP
40
ENDCHAR
STARTCHAR SOLIDUS
ENCODING 47
SWIDTH 480 0
DWIDTH 6 0
BBX 6 8 0 0
BITMAP
08
08
10
10
20
20
40
40
ENDCHAR
STARTCHAR ZERO
ENCODING 48
SWIDTH 480 0
DWIDTH 7 0
BBX 7 9 0 0
BITMAP
38
44
44
44
44
44
44
44
38
ENDCHAR
STARTCHAR ONE
ENCODING 49
SWIDTH 480 0
DWIDTH 5 0
BBX 5 9 0 0
BITMAP
10
70
10
10
10
10
10
10
10
ENDCHAR
STARTCHAR TWO
ENCODING 50
SWIDTH 480 0
DWIDTH 7 0
BBX 7 9 0 0
BITMAP
38
44
04
04
08
10
20
40
78
ENDCHAR
STARTCHAR THREE
ENCODING 51
SWIDTH 480 0
DWIDTH 7 0
BBX 7 9 0 0
BITMAP
38
44
04
04
18
04
04
44
38
ENDCHAR
STARTCHAR FOUR
ENCODING 52
SWIDTH 480 0
DWIDTH 7 0
BBX 7 9 0 0
BITMAP
08
18
18
28
28
48
7c
08
08
ENDCHAR
STARTCHAR FIVE
ENCODING 53
SWIDTH 480 0
DWIDTH 7 0
BBX 7 9 0 0
BITMAP
7c
40
40
78
44
04
04
44
38
ENDCHAR
STARTCHAR SIX
ENCODING 54
SWIDTH 480 0
DWIDTH 7 0
BBX 7 9 0 0
BITMAP
38
44
40
40
78
44
44
44
38
ENDCHAR
STARTCHAR SEVEN
ENCODING 55
SWIDTH 480 0
DWIDTH 7 0
BBX 7 9 0 0
BITMAP
7c
04
08
08
10
10
20
20
20
ENDCHAR
STARTCHAR EIGHT
ENCODING 56
SWIDTH 480 0
DWIDTH 7 0
BBX 7 9 0 0
BITMAP
38
44
44
44
38
44
44
44
38
ENDCHAR
STARTCHAR NINE
ENCODING 57
SWIDTH 480 0
DWIDTH 7 0
BBX 7 9 0 0
BITMAP
38
44
44
44
3c
04
04
44
38
ENDCHAR
STARTCHAR COLON
ENCODING 58
SWIDTH 480 0
DWIDTH 3 0
BBX 3 6 0 0
BITMAP
40
00
00
00
00
40
ENDCHAR
STARTCHAR SEMICOLON
ENCODING 59
SWIDTH 480 0
DWIDTH 4 0
BBX 4 7 0 -1
BITMAP
20
00
00
00
00
20
40
ENDCHAR
STARTCHAR LESS-THAN_SIGN
ENCODING 60
SWIDTH 480 0
DWIDTH 6 0
BBX 6 7 0 0
BITMAP
08
10
20
40
20
10
08
ENDCHAR
STARTCHAR EQUALS_SIGN
ENCODING 61
SWIDTH 480 0
DWIDTH 7 0
BBX 7 3 0 2
BITMAP
7c
00
7c
ENDCHAR
STARTCHAR GREATER-THAN_SIGN
ENCODING 62
SWIDTH 480 0
DWIDTH 6 0
BBX 6 7 0 0
BITMAP
40
20
10
08
10
20
40
ENDCHAR
STARTCHAR QUESTION_MARK
ENCODING 63
SWIDTH 480 0
DWIDTH 7 0
BBX 7 9 0 0
BITMAP
38
44
04
04
08
10
10
00
10
ENDCHAR
STARTCHAR COMMERCIAL_AT
ENCODING 64
SWIDTH 480 0
DWIDTH 12 0
BBX 12 10 0 -1
BITMAP
0f80
3040
2020
47a0
4920
4920
46c0
2000
3020
0fc0
ENDCHAR
STARTCHAR A
ENCODING 65
SWIDTH 480 0
DWIDTH 8 0
BBX 8 9 0 0
BITMAP
10
10
28
28
44
44
7c
82
82
ENDCHAR
STARTCHAR B
ENCODING 66
SWIDTH 480 0
DWIDTH 7 0
BBX 7 9 0 0
BITMAP
78
44
44
44
78
44
44
44
78
ENDCHAR
STARTCHAR C
ENCODING 67
SWIDTH 480 0
DWIDTH 8 0
BBX 8 9 0 0
BITMAP
3c
42
40
40
40
40
40
42
3c
ENDCHAR
STARTCHAR D
ENCODING 68
SWIDTH 480 0
DWIDTH 8 0
BBX 8 9 0 0
BITMAP
78
44
42
42
42
42
42
44
78
ENDCHAR
STARTCHAR E
ENCODING 69
SWIDTH 480 0
DWIDTH 7 0
BBX 7 9 0 0
BITMAP
7c
40
40
40
78
40
40
40
7c
ENDCHAR
STARTCHAR F
ENCODING 70
SWIDTH 480 0
DWIDTH 7 0
BBX 7 9 0 0
BITMAP
7c
40
40
40
78
40
40
40
40
ENDCHAR
STARTCHAR G
ENCODING 71
SWIDTH 480 0
DWIDTH 8 0
BBX 8 9 0 0
BITMAP
3c
42
40
40
4e
42
42
46
3a
ENDCHAR
STARTCHAR H
ENCODING 72
SWIDTH 480 0
DWIDTH 8 0
BBX 8 9 0 0
BITMAP
42
42
42
42
7e
42
42
42
42
ENDCHAR
STARTCHAR I
ENCODING 73
SWIDTH 480 0
DWIDTH 3 0
BBX 3 9 0 0
BITMAP
40
40
40
40
40
40
40
40
40
ENDCHAR
STARTCHAR J
ENCODING 74
SWIDTH 480 0
DWIDTH 5 0
BBX 5 9 0 0
BITMAP
10
10
10
10
10
10
90
90
60
ENDCHAR
STARTCHAR K
ENCODING 75
SWIDTH 480 0
DWIDTH 8 0
BBX 8 9 0 0
BITMAP
44
48
50
60
60
50
48
44
42
ENDCHAR
STARTCHAR L
ENCODING 76
SWIDTH 480 0
DWIDTH 7 0
BBX 7 9 0 0
BITMAP
40
40
40
40
40
40
40
40
7c
ENDCHAR
STARTCHAR M
ENCODING 77
SWIDTH 480 0
DWIDTH 9 0
BBX 8 9 0 0
BITMAP
41
41
63
63
55
55
49
49
41
ENDCHAR
STARTCHAR N
ENCODING 78
SWIDTH 480 0
DWIDTH 8 0
BBX 8 9 0 0
BITMAP
42
62
62
52
52
4a
46
46
42
ENDCHAR
STARTCHAR O
ENCODING 79
SWIDTH 480 0
DWIDTH 8 0
BBX 8 9 0 0
BITMAP
3c
42
42
42
42
42
42
42
3c
ENDCHAR
STARTCHAR P
ENCODING 80
SWIDTH 480 0
DWIDTH 8 0
BBX 8 9 0 0
BITMAP
7c
42
42
42
7c
40
40
40
40
ENDCHAR
STARTCHAR Q
ENCODING 81
SWIDTH 480 0
DWIDTH 8 0
BBX 8 10 0 -1
BITMAP
3c
42
42
42
42
42
4a
46
3c
02
ENDCHAR
STARTCHAR R
ENCODING 82
SWIDTH 480 0
DWIDTH 8 0
BBX 8 9 0 0
BITMAP
7c
42
42
42
7c
42
42
42
42
ENDCHAR
STARTCHAR S
ENCODING 83
SWIDTH 480 0
DWIDTH 7 0
BBX 7 9 0 0
BITMAP
38
44
40
40
38
04
04
44
38
ENDCHAR
STARTCHAR T
ENCODING 84
SWIDTH 480 0
DWIDTH 7 0
BBX 7 9 0 0
BITMAP
7c
10
10
10
10
10
10
10
10
ENDCHAR
STARTCHAR U
ENCODING 85
SWIDTH 480 0
DWIDTH 8 0
BBX 8 9 0 0
BITMAP
42
42
42
42
42
42
42
42
3c
ENDCHAR
STARTCHAR V
ENCODING 86
SWIDTH 480 0
DWIDTH 9 0
BBX 8 9 0 0
BITMAP
41
41
22
22
22
14
14
08
08
ENDCHAR
STARTCHAR W
ENCODING 87
SWIDTH 480 0
DWIDTH 12 0
BBX 12 9 0 0
BITMAP
8020
8020
4440
4440
4440
2a80
2a80
1100
1100
ENDCHAR
STARTCHAR X
ENCODING 88
SWIDTH 480 0
DWIDTH 8 0
BBX 8 9 0 0
BITMAP
82
82
44
28
10
28
44
82
82
ENDCHAR
STARTCHAR Y
ENCODING 89
SWIDTH 480 0
DWIDTH 8 0
BBX 8 9 0 0
BITMAP
82
82
44
28
10
10
10
10
10
ENDCHAR
STARTCHAR Z
ENCODING 90
SWIDTH 480 0
DWIDTH 8 0
BBX 8 9 0 0
BITMAP
fe
02
04
08
10
20
40
80
fe
ENDCHAR
STARTCHAR LEFT_SQUARE_BRACKET
ENCODING 91
SWIDTH 480 0
DWIDTH 4 0
BBX 4 11 0 -2
BITMAP
60
40
40
40
40
40
40
40
40
40
60
ENDCHAR
STARTCHAR REVERSE_SOLIDUS
ENCODING 92
SWIDTH 480 0
DWIDTH 6 0
BBX 6 8 0 0
BITMAP
40
40
20
20
10
10
08
08
ENDCHAR
STARTCHAR RIGHT_SQUARE_BRACKET
ENCODING 93
SWIDTH 480 0
DWIDTH 4 0
BBX 4 11 0 -2
BITMAP
60
20
20
20
20
20
20
20
20
20
60
ENDCHAR
STARTCHAR CIRCUMFLEX_ACCENT
ENCODING 94
SWIDTH 480 0
DWIDTH 7 0
BBX 7 3 0 7
BITMAP
10
28
44
ENDCHAR
STARTCHAR LOW_LINE
ENCODING 95
SWIDTH 480 0
DWIDTH 7 0
BBX 7 1 0 -2
BITMAP
fc
ENDCHAR
STARTCHAR GRAVE_ACCENT
ENCODING 96
SWIDTH 480 0
DWIDTH 4 0
BBX 4 2 0 7
BITMAP
40
20
ENDCHAR
STARTCHAR a
ENCODING 97
SWIDTH 480 0
DWIDTH 7 0
BBX 7 6 0 0
BITMAP
38
04
3c
44
44
3c
ENDCHAR
STARTCHAR b
ENCODING 98
SWIDTH 480 0
DWIDTH 7 0
BBX 7 9 0 0
BITMAP
40
40
40
78
44
44
44
44
78
ENDCHAR
STARTCHAR c
ENCODING 99
SWIDTH 480 0
DWIDTH 7 0
BBX 7 6 0 0
BITMAP
38
44
40
40
44
38
ENDCHAR
STARTCHAR d
ENCODING 100
SWIDTH 480 0
DWIDTH 7 0
BBX 7 9 0 0
BITMAP
04
04
04
3c
44
44
44
44
3c
ENDCHAR
STARTCHAR e
ENCODING 101
SWIDTH 480 0
DWIDTH 7 0
BBX 7 6 0 0
BITMAP
38
44
7c
40
44
38
ENDCHAR
STARTCHAR f
ENCODING 102
SWIDTH 480 0
DWIDTH 4 0
BBX 4 9 0 0
BITMAP
20
40
40
60
40
40
40
40
40
ENDCHAR
STARTCHAR g
ENCODING 103
SWIDTH 480 0
DWIDTH 7 0
BBX 7 8 0 -2
BITMAP
3c
44
44
44
44
3c
04
78
ENDCHAR
STARTCHAR h
ENCODING 104
SWIDTH 480 0
DWIDTH 7 0
BBX 7 9 0 0
BITMAP
40
40
40
58
64
44
44
44
44
ENDCHAR
STARTCHAR i
ENCODING 105
SWIDTH 480 0
DWIDTH 3 0
BBX 3 9 0 0
BITMAP
40
00
00
40
40
40
40
40
40
ENDCHAR
STARTCHAR j
ENCODING 106
SWIDTH 480 0
DWIDTH 3 0
BBX 3 11 0 -2
BITMAP
40
00
00
40
40
40
40
40
40
40
80
ENDCHAR
STARTCHAR k
ENCODING 107
SWIDTH 480 0
DWIDTH 7 0
BBX 7 9 0 0
BITMAP
40
40
40
48
50
60
50
48
44
ENDCHAR
STARTCHAR l
ENCODING 108
SWIDTH 480 0
DWIDTH 3 0
BBX 3 9 0 0
BITMAP
40
40
40
40
40
40
40
40
40
ENDCHAR
STARTCHAR m
ENCODING 109
SWIDTH 480 0
DWIDTH 9 0
BBX 8 6 0 0
BITMAP
76
49
49
49
49
49
ENDCHAR
STARTCHAR n
ENCODING 110
SWIDTH 480 0
DWIDTH 7 0
BBX 7 6 0 0
BITMAP
58
64
44
44
44
44
ENDCHAR
STARTCHAR o
ENCODING 111
SWIDTH 480 0
DWIDTH 7 0
BBX 7 6 0 0
BITMAP
38
44
44
44
44
38
ENDCHAR
STARTCHAR p
ENCODING 112
SWIDTH 480 0
DWIDTH 7 0
BBX 7 8 0 -2
BITMAP
78
44
44
44
44
78
40
40
ENDCHAR
STARTCHAR q
ENCODING 113
SWIDTH 480 0
DWIDTH 7 0
BBX 7 8 0 -2
BITMAP
3c
44
44
44
44
3c
04
04
ENDCHAR
STARTCHAR r
ENCODING 114
SWIDTH 480 0
DWIDTH 4 0
BBX 4 6 0 0
BITMAP
60
40
40
40
40
40
ENDCHAR
STARTCHAR s
ENCODING 115
SWIDTH 480 0
DWIDTH 6 0
BBX 6 6 0 0
BITMAP
30
48
20
10
48
30
ENDCHAR
STARTCHAR t
ENCODING 116
SWIDTH 480 0
DWIDTH 4 0
BBX 4 8 0 0
BITMAP
40
40
60
40
40
40
40
20
ENDCHAR
STARTCHAR u
ENCODING 117
SWIDTH 480 0
DWIDTH 7 0
BBX 7 6 0 0
BITMAP
44
44
44
44
4c
34
ENDCHAR
STARTCHAR v
ENCODING 118
SWIDTH 480 0
DWIDTH 7 0
BBX 7 6 0 0
BITMAP
44
44
28
28
10
10
ENDCHAR
STARTCHAR w
ENCODING 119
SWIDTH 480 0
DWIDTH 9 0
BBX 8 6 0 0
BITMAP
49
49
55
55
22
22
ENDCHAR
STARTCHAR x
ENCODING 120
SWIDTH 480 0
DWIDTH 6 0
BBX 6 6 0 0
BITMAP
48
48
30
30
48
48
ENDCHAR
STARTCHAR y
ENCODING 121
SWIDTH 480 0
DWIDTH 6 0
BBX 6 8 0 -2
BITMAP
48
48
48
48
30
20
20
c0
ENDCHAR
STARTCHAR z
ENCODING 122
SWIDTH 480 0
DWIDTH 6 0
BBX 6 6 0 0
BITMAP
78
08
10
20
40
78
ENDCHAR
STARTCHAR LEFT_CURLY_BRACKET
ENCODING 123
SWIDTH 480 0
DWIDTH 5 0
BBX 5 11 0 -1
BITMAP
10
20
20
20
20
40
20
20
20
20
10
ENDCHAR
STARTCHAR VERTICAL_LINE
ENCODING 124
SWIDTH 480 0
DWIDTH 3 0
BBX 3 10 0 -1
BITMAP
40
40
40
40
40
40
40
40
40
40
ENDCHAR
STARTCHAR RIGHT_CURLY_BRACKET
ENCODING 125
SWIDTH 480 0
DWIDTH 5 0
BBX 5 11 0 -1
BITMAP
40
20
20
20
20
10
20
20
20
20
40
ENDCHAR
STARTCHAR TILDE
ENCODING 126
SWIDTH 480 0
DWIDTH 8 0
BBX 8 2 0 6
BITMAP
32
4c
ENDCHAR
STARTCHAR THO_THAN_DESCLESS
ENCODING 128
SWIDTH 480 0
DWIDTH 6 0
BBX 6 9 0 -2
BITMAP
38
40
70
08
68
18
08
00
00
ENDCHAR
STARTCHAR SARA_I_LEFT
ENCODING 129
SWIDTH 480 0
DWIDTH 0 0
BBX 8 14 -8 0
BITMAP
00
00
00
00
70
f8
00
00
00
00
00
00
00
00
ENDCHAR
STARTCHAR SARA_II_LEFT
ENCODING 130
SWIDTH 480 0
DWIDTH 0 0
BBX 8 14 -8 0
BITMAP
00
00
00
00
68
f8
00
00
00
00
00
00
00
00
ENDCHAR
STARTCHAR SARA_UE_LEFT
ENCODING 131
SWIDTH 480 0
DWIDTH 0 0
BBX 8 14 -8 0
BITMAP
00
00
00
00
6c
f4
00
00
00
00
00
00
00
00
ENDCHAR
STARTCHAR SARA_UEE_LEFT
ENCODING 132
SWIDTH 480 0
DWIDTH 0 0
BBX 8 14 -8 0
BITMAP
00
00
00
00
68
e8
00
00
00
00
00
00
00
00
ENDCHAR
STARTCHAR ELLIPSIS
ENCODING 133
SWIDTH 480 0
DWIDTH 10 0
BBX 8 14 0 0
BITMAP
00
00
00
00
00
00
00
00
00
00
00
00
00
a8
ENDCHAR
STARTCHAR MAI_EK_LOW_LEFT
ENCODING 134
SWIDTH 480 0
DWIDTH 0 0
BBX 8 14 -8 0
BITMAP
00
00
00
08
08
08
00
00
00
00
00
00
00
00
ENDCHAR
STARTCHAR MAI_THO_LOW_LEFT
ENCODING 135
SWIDTH 480 0
DWIDTH 0 0
BBX 8 14 -8 0
BITMAP
00
00
00
34
14
38
00
00
00
00
00
00
00
00
ENDCHAR
STARTCHAR MAI_TRI_LOW_LEFT
ENCODING 136
SWIDTH 480 0
DWIDTH 0 0
BBX 8 14 -8 0
BITMAP
00
00
00
54
74
58
00
00
00
00
00
00
00
00
ENDCHAR
STARTCHAR MAI_CHATTAWA_LOW_LEFT
ENCODING 137
SWIDTH 480 0
DWIDTH 0 0
BBX 8 14 -8 0
BITMAP
00
00
00
10
38
10
00
00
00
00
00
00
00
00
ENDCHAR
STARTCHAR THANTHAKHAT_LOW_LEFT
ENCODING 138
SWIDTH 480 0
DWIDTH 0 0
BBX 8 14 -8 0
BITMAP
00
00
02
0c
10
18
00
00
00
00
00
00
00
00
ENDCHAR
STARTCHAR MAI_EK_LOW
ENCODING 139
SWIDTH 480 0
DWIDTH 0 0
BBX 8 14 -8 0
BITMAP
00
00
00
02
02
02
00
00
00
00
00
00
00
00
ENDCHAR
STARTCHAR MAI_THO_LOW
ENCODING 140
SWIDTH 480 0
DWIDTH 0 0
BBX 8 14 -8 0
BITMAP
00
00
00
1a
0a
1c
00
00
00
00
00
00
00
00
ENDCHAR
STARTCHAR MAI_TRI_LOW
ENCODING 141
SWIDTH 480 0
DWIDTH 0 0
BBX 8 14 -8 0
BITMAP
00
00
00
15
1d
16
00
00
00
00
00
00
00
00
ENDCHAR
STARTCHAR MAI_CHATTAWA_LOW
ENCODING 142
SWIDTH 480 0
DWIDTH 0 0
BBX 8 14 -8 0
BITMAP
00
00
00
04
0e
04
00
00
00
00
00
00
00
00
ENDCHAR
STARTCHAR THANTHAKHAT_LOW
ENCODING 143
SWIDTH 480 0
DWIDTH 0 0
BBX 8 14 -8 0
BITMAP
00
00
01
06
08
0c
00
00
00
00
00
00
00
00
ENDCHAR
STARTCHAR YO_YING_DESCLESS
ENCODING 144
SWIDTH 480 0
DWIDTH 9 0
BBX 8 9 0 -2
BITMAP
31
49
29
49
69
59
2e
00
00
ENDCHAR
STARTCHAR QUOTE_LEFT
ENCODING 145
SWIDTH 480 0
DWIDTH 3 0
BBX 3 2 0 6
BITMAP
20
40
ENDCHAR
STARTCHAR QUOTE_RIGHT
ENCODING 146
SWIDTH 480 0
DWIDTH 3 0
BBX 3 2 0 6
BITMAP
20
40
ENDCHAR
STARTCHAR DQUOTE_LEFT
ENCODING 147
SWIDTH 480 0
DWIDTH 5 0
BBX 5 2 0 6
BITMAP
28
50
ENDCHAR
STARTCHAR DQUOTE_RIGHT
ENCODING 148
SWIDTH 480 0
DWIDTH 5 0
BBX 5 2 0 6
BITMAP
28
50
ENDCHAR
STARTCHAR BULLET
ENCODING 149
SWIDTH 480 0
DWIDTH 7 0
BBX 5 12 0 -2
BITMAP
00
00
00
00
00
00
20
70
70
20
00
00
ENDCHAR
STARTCHAR EN_DASH
ENCODING 150
SWIDTH 480 0
DWIDTH 8 0
BBX 6 14 0 -2
BITMAP
00
00
00
00
00
00
00
7e
00
00
00
00
00
00
ENDCHAR
STARTCHAR EM_DASH
ENCODING 151
SWIDTH 480 0
DWIDTH 9 0
BBX 7 14 0 -2
BITMAP
00
00
00
00
00
00
00
7f
00
00
00
00
00
00
ENDCHAR
STARTCHAR MAI_HAN-AKAT_LEFT
ENCODING 152
SWIDTH 480 0
DWIDTH 0 0
BBX 8 14 -8 -2
BITMAP
00
00
64
78
00
00
00
00
00
00
00
00
00
00
ENDCHAR
STARTCHAR NIKHAHIT_LEFT
ENCODING 153
SWIDTH 480 0
DWIDTH 0 0
BBX 8 14 -8 -2
BITMAP
00
00
08
14
08
00
00
00
00
00
00
00
00
00
ENDCHAR
STARTCHAR MAI_TAIKHU_LEFT
ENCODING 154
SWIDTH 480 0
DWIDTH 0 0
BBX 8 14 -8 -2
BITMAP
04
38
44
78
00
00
00
00
00
00
00
00
00
00
ENDCHAR
STARTCHAR MAI_EK_LEFT
ENCODING 155
SWIDTH 480 0
DWIDTH 0 0
BBX 8 14 -8 0
BITMAP
00
08
08
00
00
00
00
00
00
00
00
00
00
00
ENDCHAR
STARTCHAR MAI_THO_LEFT
ENCODING 156
SWIDTH 480 0
DWIDTH 0 0
BBX 8 14 -8 0
BITMAP
00
34
18
00
00
00
00
00
00
00
00
00
00
00
ENDCHAR
STARTCHAR MAI_TRI_LEFT
ENCODING 157
SWIDTH 480 0
DWIDTH 0 0
BBX 8 14 -8 0
BITMAP
00
3a
2c
00
00
00
00
00
00
00
00
00
00
00
ENDCHAR
STARTCHAR MAI_CHATTAWA_LEFT
ENCODING 158
SWIDTH 480 0
DWIDTH 0 0
BBX 8 12 -8 0
BITMAP
10
38
10
00
00
00
00
00
00
00
00
00
ENDCHAR
STARTCHAR THANTHAKHAT_LEFT
ENCODING 159
SWIDTH 480 0
DWIDTH 0 0
BBX 8 12 -8 0
BITMAP
00
04
08
00
00
00
00
00
00
00
00
00
ENDCHAR
STARTCHAR NO-BREAK_SPACE
ENCODING 160
SWIDTH 480 0
DWIDTH 6 0
BBX 1 1 0 0
BITMAP
00
ENDCHAR
STARTCHAR KO_KAI
ENCODING 161
SWIDTH 480 0
DWIDTH 7 0
BBX 7 7 0 0
BITMAP
38
44
24
44
44
44
44
ENDCHAR
STARTCHAR KHO_KHAI
ENCODING 162
SWIDTH 480 0
DWIDTH 6 0
BBX 6 7 0 0
BITMAP
68
98
68
28
28
28
78
ENDCHAR
STARTCHAR KHO_KHUAT
ENCODING 163
SWIDTH 480 0
DWIDTH 7 0
BBX 7 7 0 0
BITMAP
54
ac
54
14
14
14
3c
ENDCHAR
STARTCHAR KHO_KHWAI
ENCODING 164
SWIDTH 480 0
DWIDTH 7 0
BBX 7 7 0 0
BITMAP
78
84
b4
64
44
44
44
ENDCHAR
STARTCHAR KHO_KHON
ENCODING 165
SWIDTH 480 0
DWIDTH 7 0
BBX 7 7 0 0
BITMAP
68
94
b4
a4
44
44
44
ENDCHAR
STARTCHAR KHO_RAKHANG
ENCODING 166
SWIDTH 480 0
DWIDTH 8 0
BBX 8 7 0 0
BITMAP
52
aa
52
12
3a
56
32
ENDCHAR
STARTCHAR NGO_NGU
ENCODING 167
SWIDTH 480 0
DWIDTH 5 0
BBX 5 7 0 0
BITMAP
20
50
30
10
90
50
30
ENDCHAR
STARTCHAR CHO_CHAN
ENCODING 168
SWIDTH 480 0
DWIDTH 6 0
BBX 6 7 0 0
BITMAP
70
88
28
58
28
08
08
ENDCHAR
STARTCHAR CHO_CHING
ENCODING 169
SWIDTH 480 0
DWIDTH 8 0
BBX 8 7 0 0
BITMAP
78
84
44
a4
6e
36
24
ENDCHAR
STARTCHAR CHO_CHANG
ENCODING 170
SWIDTH 480 0
DWIDTH 7 0
BBX 7 7 0 0
BITMAP
64
94
58
24
24
24
7c
ENDCHAR
STARTCHAR SO_SO
ENCODING 171
SWIDTH 480 0
DWIDTH 7 0
BBX 7 7 0 0
BITMAP
54
b4
58
24
24
24
7c
ENDCHAR
STARTCHAR CHO_CHOE
ENCODING 172
SWIDTH 480 0
DWIDTH 9 0
BBX 8 7 0 0
BITMAP
31
49
29
49
69
5d
2b
ENDCHAR
STARTCHAR YO_YING
ENCODING 173
SWIDTH 480 0
DWIDTH 9 0
BBX 8 9 0 -2
BITMAP
31
49
29
49
69
59
2f
09
0e
ENDCHAR
STARTCHAR DO_CHADA
ENCODING 174
SWIDTH 480 0
DWIDTH 7 0
BBX 7 9 0 -2
BITMAP
18
24
14
24
64
a4
44
14
3c
ENDCHAR
STARTCHAR TO_PATAK
ENCODING 175
SWIDTH 480 0
DWIDTH 7 0
BBX 7 9 0 -2
BITMAP
18
24
14
24
64
a4
44
2c
74
ENDCHAR
STARTCHAR THO_THAN
ENCODING 176
SWIDTH 480 0
DWIDTH 6 0
BBX 6 9 0 -2
BITMAP
38
40
70
08
68
18
08
00
58
ENDCHAR
STARTCHAR THO_NANGMONTHO
ENCODING 177
SWIDTH 480 0
DWIDTH 8 0
BBX 8 7 0 0
BITMAP
54
aa
52
12
12
12
12
ENDCHAR
STARTCHAR THO_PHUTHAO
ENCODING 178
SWIDTH 480 0
DWIDTH 9 0
BBX 8 7 0 0
BITMAP
69
95
a5
d5
b5
6f
45
ENDCHAR
STARTCHAR NO_NEN
ENCODING 179
SWIDTH 480 0
DWIDTH 9 0
BBX 8 7 0 0
BITMAP
32
4a
2a
4a
6b
5f
2a
ENDCHAR
STARTCHAR DO_DEK
ENCODING 180
SWIDTH 480 0
DWIDTH 7 0
BBX 7 7 0 0
BITMAP
78
84
a4
d4
b4
64
44
ENDCHAR
STARTCHAR TO_TAO
ENCODING 181
SWIDTH 480 0
DWIDTH 7 0
BBX 7 7 0 0
BITMAP
68
94
a4
d4
b4
64
44
ENDCHAR
STARTCHAR THO_THUNG
ENCODING 182
SWIDTH 480 0
DWIDTH 7 0
BBX 7 7 0 0
BITMAP
38
44
24
44
64
54
24
ENDCHAR
STARTCHAR THO_THAHAN
ENCODING 183
SWIDTH 480 0
DWIDTH 7 0
BBX 7 7 0 0
BITMAP
48
b4
64
24
24
24
24
ENDCHAR
STARTCHAR THO_THONG
ENCODING 184
SWIDTH 480 0
DWIDTH 6 0
BBX 6 7 0 0
BITMAP
38
40
70
28
28
28
78
ENDCHAR
STARTCHAR NO_NU
ENCODING 185
SWIDTH 480 0
DWIDTH 8 0
BBX 8 7 0 0
BITMAP
44
a4
64
24
2e
36
24
ENDCHAR
STARTCHAR BO_BAIMAI
ENCODING 186
SWIDTH 480 0
DWIDTH 7 0
BBX 7 7 0 0
BITMAP
44
a4
64
24
24
24
7c
ENDCHAR
STARTCHAR PO_PLA
ENCODING 187
SWIDTH 480 0
DWIDTH 7 0
BBX 7 9 0 0
BITMAP
04
04
44
a4
64
24
24
24
7c
ENDCHAR
STARTCHAR PHO_PHUNG
ENCODING 188
SWIDTH 480 0
DWIDTH 7 0
BBX 7 7 0 0
BITMAP
24
54
64
44
54
6c
44
ENDCHAR
STARTCHAR FO_FA
ENCODING 189
SWIDTH 480 0
DWIDTH 7 0
BBX 7 9 0 0
BITMAP
04
04
24
54
64
44
54
6c
44
ENDCHAR
STARTCHAR PHO_PHAN
ENCODING 190
SWIDTH 480 0
DWIDTH 8 0
BBX 8 7 0 0
BITMAP
4a
aa
6a
36
36
22
22
ENDCHAR
STARTCHAR FO_FAN
ENCODING 191
SWIDTH 480 0
DWIDTH 8 0
BBX 8 9 0 0
BITMAP
02
02
4a
aa
6a
36
36
22
22
ENDCHAR
STARTCHAR PHO_SAMPHAO
ENCODING 192
SWIDTH 480 0
DWIDTH 7 0
BBX 7 7 0 0
BITMAP
18
24
14
24
64
a4
44
ENDCHAR
STARTCHAR MO_MA
ENCODING 193
SWIDTH 480 0
DWIDTH 7 0
BBX 7 7 0 0
BITMAP
44
a4
64
24
74
ac
64
ENDCHAR
STARTCHAR YO_YAK
ENCODING 194
SWIDTH 480 0
DWIDTH 7 0
BBX 7 7 0 0
BITMAP
24
54
64
44
24
44
7c
ENDCHAR
STARTCHAR RO_RUA
ENCODING 195
SWIDTH 480 0
DWIDTH 6 0
BBX 6 7 0 0
BITMAP
38
40
70
08
18
28
10
ENDCHAR
STARTCHAR RU
ENCODING 196
SWIDTH 480 0
DWIDTH 7 0
BBX 7 9 0 -2
BITMAP
38
44
24
44
64
54
24
04
04
ENDCHAR
STARTCHAR LO_LING
ENCODING 197
SWIDTH 480 0
DWIDTH 6 0
BBX 6 7 0 0
BITMAP
70
88
38
48
68
58
28
ENDCHAR
STARTCHAR LU
ENCODING 198
SWIDTH 480 0
DWIDTH 7 0
BBX 7 9 0 -2
BITMAP
18
24
14
24
64
a4
44
04
04
ENDCHAR
STARTCHAR WO_WAEN
ENCODING 199
SWIDTH 480 0
DWIDTH 6 0
BBX 6 7 0 0
BITMAP
70
88
08
08
18
28
10
ENDCHAR
STARTCHAR SO_SALA
ENCODING 200
SWIDTH 480 0
DWIDTH 8 0
BBX 8 8 0 0
BITMAP
02
3a
44
5a
52
22
22
22
ENDCHAR
STARTCHAR SO_RUSI
ENCODING 201
SWIDTH 480 0
DWIDTH 8 0
BBX 8 7 0 0
BITMAP
44
a4
64
36
3c
24
7c
ENDCHAR
STARTCHAR SO_SUA
ENCODING 202
SWIDTH 480 0
DWIDTH 6 0
BBX 6 8 0 0
BITMAP
08
68
98
38
48
68
58
28
ENDCHAR
STARTCHAR HO_HIP
ENCODING 203
SWIDTH 480 0
DWIDTH 7 0
BBX 7 7 0 0
BITMAP
48
b4
78
24
24
24
24
ENDCHAR
STARTCHAR LO_CHULA
ENCODING 204
SWIDTH 480 0
DWIDTH 8 0
BBX 8 8 0 0
BITMAP
06
47
aa
6a
36
36
22
22
ENDCHAR
STARTCHAR O_ANG
ENCODING 205
SWIDTH 480 0
DWIDTH 6 0
BBX 6 7 0 0
BITMAP
70
08
28
58
68
48
78
ENDCHAR
STARTCHAR HO_NOK_HUK
ENCODING 206
SWIDTH 480 0
DWIDTH 7 0
BBX 7 8 0 0
BITMAP
04
3c
78
24
54
64
44
7c
ENDCHAR
STARTCHAR PAI_YAN_NOI
ENCODING 207
SWIDTH 480 0
DWIDTH 6 0
BBX 6 7 0 -1
BITMAP
68
48
38
08
08
08
10
ENDCHAR
STARTCHAR SARA_A
ENCODING 208
SWIDTH 480 0
DWIDTH 5 0
BBX 5 6 0 0
BITMAP
d0
e0
00
00
d0
e0
ENDCHAR
STARTCHAR MAI_HAN-AKAT
ENCODING 209
SWIDTH 480 0
DWIDTH 0 0
BBX 7 2 -6 8
BITMAP
64
78
ENDCHAR
STARTCHAR SARA_AA
ENCODING 210
SWIDTH 480 0
DWIDTH 5 0
BBX 5 7 0 0
BITMAP
60
90
10
10
10
10
10
ENDCHAR
STARTCHAR SARA_AM
ENCODING 211
SWIDTH 480 0
DWIDTH 5 0
BBX 8 10 -4 0
BITMAP
40
a0
40
06
09
01
01
01
01
01
ENDCHAR
STARTCHAR SARA_I
ENCODING 212
SWIDTH 480 0
DWIDTH 0 0
BBX 6 2 -6 8
BITMAP
70
f8
ENDCHAR
STARTCHAR SARA_II
ENCODING 213
SWIDTH 480 0
DWIDTH 0 0
BBX 6 2 -6 8
BITMAP
68
f8
ENDCHAR
STARTCHAR SARA_UE
ENCODING 214
SWIDTH 480 0
DWIDTH 0 0
BBX 7 2 -7 8
BITMAP
6c
f4
ENDCHAR
STARTCHAR SARA_UEE
ENCODING 215
SWIDTH 480 0
DWIDTH 0 0
BBX 6 2 -6 8
BITMAP
68
e8
ENDCHAR
STARTCHAR SARA_U
ENCODING 216
SWIDTH 480 0
DWIDTH 0 0
BBX 4 2 -4 -3
BITMAP
60
20
ENDCHAR
STARTCHAR SARA_UU
ENCODING 217
SWIDTH 480 0
DWIDTH 0 0
BBX 5 2 -5 -3
BITMAP
50
30
ENDCHAR
STARTCHAR PHINTHU
ENCODING 218
SWIDTH 480 0
DWIDTH 0 0
BBX 4 2 -4 -3
BITMAP
60
60
ENDCHAR
STARTCHAR BAHT 
ENCODING 223
SWIDTH 480 0
DWIDTH 7 0
BBX 7 10 0 -1
BITMAP
10
78
54
54
78
54
54
54
78
10
ENDCHAR
STARTCHAR SARA_E
ENCODING 224
SWIDTH 480 0
DWIDTH 5 0
BBX 5 7 0 0
BITMAP
40
40
40
40
60
50
20
ENDCHAR
STARTCHAR SARA_AE
ENCODING 225
SWIDTH 480 0
DWIDTH 8 0
BBX 8 7 0 0
BITMAP
48
48
48
48
6c
5a
24
ENDCHAR
STARTCHAR SARA_O
ENCODING 226
SWIDTH 480 0
DWIDTH 5 0
BBX 5 12 0 0
BITMAP
70
80
c0
40
40
40
40
40
40
60
50
20
ENDCHAR
STARTCHAR SARA_AI_MAI_MUAN
ENCODING 227
SWIDTH 480 0
DWIDTH 6 0
BBX 6 12 0 0
BITMAP
40
a0
a0
60
20
20
20
20
20
30
28
10
ENDCHAR
STARTCHAR SARA_AI_MAI_MALAI
ENCODING 228
SWIDTH 480 0
DWIDTH 6 0
BBX 6 12 0 0
BITMAP
a0
a0
60
20
20
20
20
20
20
30
28
10
ENDCHAR
STARTCHAR LAK_KHANG_YAO
ENCODING 229
SWIDTH 480 0
DWIDTH 5 0
BBX 5 9 0 -2
BITMAP
60
90
10
10
10
10
10
10
10
ENDCHAR
STARTCHAR MAI_YAMOK
ENCODING 230
SWIDTH 480 0
DWIDTH 6 0
BBX 6 9 0 -2
BITMAP
48
78
48
28
08
08
08
08
10
ENDCHAR
STARTCHAR MAI_TAIKHU
ENCODING 231
SWIDTH 480 0
DWIDTH 0 0
BBX 6 4 -6 8
BITMAP
08
70
88
f0
ENDCHAR
STARTCHAR MAI_EK
ENCODING 232
SWIDTH 480 0
DWIDTH 0 0
BBX 3 2 -3 11
BITMAP
40
40
ENDCHAR
STARTCHAR MAI_THO
ENCODING 233
SWIDTH 480 0
DWIDTH 0 0
BBX 6 2 -6 11
BITMAP
68
30
ENDCHAR
STARTCHAR MAI_TRI
ENCODING 234
SWIDTH 480 0
DWIDTH 0 0
BBX 7 2 -6 11
BITMAP
74
58
ENDCHAR
STARTCHAR MAI_CHATTAWA
ENCODING 235
SWIDTH 480 0
DWIDTH 0 0
BBX 5 3 -5 11
BITMAP
20
70
20
ENDCHAR
STARTCHAR THANTHAKHAT
ENCODING 236
SWIDTH 480 0
DWIDTH 0 0
BBX 5 3 -5 11
BITMAP
30
40
60
ENDCHAR
STARTCHAR NIKHAHIT
ENCODING 237
SWIDTH 480 0
DWIDTH 0 0
BBX 4 3 -4 7
BITMAP
40
a0
40
ENDCHAR
STARTCHAR YANAKKAN
ENCODING 238
SWIDTH 480 0
DWIDTH 0 0
BBX 5 4 -5 8
BITMAP
30
40
a0
40
ENDCHAR
STARTCHAR FONGMAN
ENCODING 239
SWIDTH 480 0
DWIDTH 7 0
BBX 6 6 0 0
BITMAP
38
44
54
54
44
38
ENDCHAR
STARTCHAR LEK_SUN
ENCODING 240
SWIDTH 480 0
DWIDTH 7 0
BBX 6 5 0 0
BITMAP
38
44
44
44
38
ENDCHAR
STARTCHAR LEK_NUNG
ENCODING 241
SWIDTH 480 0
DWIDTH 7 0
BBX 6 5 0 0
BITMAP
38
44
54
24
08
ENDCHAR
STARTCHAR LEK_SONG
ENCODING 242
SWIDTH 480 0
DWIDTH 9 0
BBX 8 7 0 0
BITMAP
80
40
54
6a
72
42
7e
ENDCHAR
STARTCHAR LEK_SAM
ENCODING 243
SWIDTH 480 0
DWIDTH 8 0
BBX 7 5 0 0
BITMAP
2c
52
52
42
64
ENDCHAR
STARTCHAR LEK_SI
ENCODING 244
SWIDTH 480 0
DWIDTH 9 0
BBX 8 8 0 0
BITMAP
01
01
01
3e
40
4c
48
36
ENDCHAR
STARTCHAR LEK_HA
ENCODING 245
SWIDTH 480 0
DWIDTH 9 0
BBX 8 8 0 0
BITMAP
01
01
19
3e
40
4c
48
36
ENDCHAR
STARTCHAR LEK_HOK
ENCODING 246
SWIDTH 480 0
DWIDTH 6 0
BBX 5 8 0 0
BITMAP
80
80
80
70
08
08
48
70
ENDCHAR
STARTCHAR LEK_CHET
ENCODING 247
SWIDTH 480 0
DWIDTH 9 0
BBX 8 7 0 0
BITMAP
01
01
29
55
45
46
64
ENDCHAR
STARTCHAR LEK_PAET
ENCODING 248
SWIDTH 480 0
DWIDTH 9 0
BBX 8 7 0 0
BITMAP
01
01
3e
40
40
52
6e
ENDCHAR
STARTCHAR LEK_KAO
ENCODING 249
SWIDTH 480 0
DWIDTH 7 0
BBX 6 7 0 0
BITMAP
04
04
6c
90
90
88
64
ENDCHAR
STARTCHAR ANGKHANKHU
ENCODING 250
SWIDTH 480 0
DWIDTH 9 0
BBX 8 6 0 0
BITMAP
6a
4a
3a
0a
0a
0a
ENDCHAR
STARTCHAR KHOMUT
ENCODING 251
SWIDTH 480 0
DWIDTH 9 0
BBX 8 4 0 1
BITMAP
30
54
4b
30
ENDCHAR
ENDFONT
STARTCHAR SARA_U_LOW
ENCODING 252
SWIDTH 480 0
DWIDTH 0 0
BBX 4 2 -4 -5
BITMAP
60
20
ENDCHAR
STARTCHAR SARA_UU_LOW
ENCODING 253
SWIDTH 480 0
DWIDTH 0 0
BBX 5 2 -5 -5
BITMAP
50
30
ENDCHAR
STARTCHAR PHINTHU_LOW
ENCODING 254
SWIDTH 480 0
DWIDTH 0 0
BBX 4 2 -4 -5
BITMAP
60
60
ENDCHAR
