STARTFONT 2.1
COMMENT  
COMMENT  WARNING:  This bdf file was generated from an X server using
COMMENT  xbdfdump.  The resulting font is subject to the same copyright,
COMMENT  license, and trademark restrictions as the original font.  The
COMMENT  author and distributors of xbdfdump disclaim all liability for
COMMENT  misuse of the program or its output.
COMMENT  
FONT -Phaisarn-Helvetica-Bold-R-Normal--12-120-75-75-P-70-tis620-0
SIZE 12 75 75
FONTBOUNDINGBOX 19 21 -8 -4
STARTPROPERTIES 24
FONTNAME_REGISTRY ""
FAMILY_NAME "Helvetica"
FOUNDRY "Phaisarn"
WEIGHT_NAME "Bold"
SETWIDTH_NAME "Normal"
SLANT "R"
ADD_STYLE_NAME ""
PIXEL_SIZE 12
POINT_SIZE 120
RESOLUTION_X 75
RESOLUTION_Y 75
SPACING "P"
AVERAGE_WIDTH 70
CHARSET_REGISTRY "tis620"
CHARSET_ENCODING "0"
CHARSET_COLLECTIONS "ASCII ISO8859-11 Phaisarn-STANDARD"
FACE_NAME "Helvetica Bold"
COPYRIGHT "Copyright (c) 1997 Phaisarn Systems, Inc., Portions Copyright 1997 Phaisarn Corp."
CAP_HEIGHT 9
X_HEIGHT 7
WEIGHT 10
QUAD_WIDTH 6
FONT_ASCENT 16
FONT_DESCENT 5
ENDPROPERTIES
CHARS 184
STARTCHAR space
ENCODING 32
SWIDTH 320 0
DWIDTH 4 0
BBX 1 1 0 0
BITMAP
00
ENDCHAR
STARTCHAR exclam
ENCODING 33
SWIDTH 320 0
DWIDTH 4 0
BBX 2 9 1 0
BITMAP
c0
c0
c0
c0
c0
80
00
c0
c0
ENDCHAR
STARTCHAR quotedbl
ENCODING 34
SWIDTH 400 0
DWIDTH 5 0
BBX 3 3 1 6
BITMAP
a0
a0
a0
ENDCHAR
STARTCHAR numbersign
ENCODING 35
SWIDTH 640 0
DWIDTH 8 0
BBX 7 8 0 0
BITMAP
14
14
7e
28
28
fc
50
50
ENDCHAR
STARTCHAR dollar
ENCODING 36
SWIDTH 560 0
DWIDTH 7 0
BBX 6 11 0 -2
BITMAP
10
78
d4
d0
78
1c
94
d4
78
10
10
ENDCHAR
STARTCHAR percent
ENCODING 37
SWIDTH 960 0
DWIDTH 12 0
BBX 11 9 0 0
BITMAP
7100
db00
da00
7400
0400
09c0
0b60
1b60
11c0
ENDCHAR
STARTCHAR ampersand
ENCODING 38
SWIDTH 720 0
DWIDTH 9 0
BBX 9 9 0 0
BITMAP
3800
6c00
6c00
3800
7900
cf00
c600
cf00
7980
ENDCHAR
STARTCHAR apostrophe
ENCODING 39
SWIDTH 320 0
DWIDTH 4 0
BBX 2 3 1 6
BITMAP
c0
40
80
ENDCHAR
STARTCHAR parenleft
ENCODING 40
SWIDTH 480 0
DWIDTH 6 0
BBX 4 12 1 -3
BITMAP
30
60
60
c0
c0
c0
c0
c0
c0
60
60
30
ENDCHAR
STARTCHAR parenright
ENCODING 41
SWIDTH 480 0
DWIDTH 6 0
BBX 4 12 1 -3
BITMAP
c0
60
60
30
30
30
30
30
30
60
60
c0
ENDCHAR
STARTCHAR asterisk
ENCODING 42
SWIDTH 480 0
DWIDTH 6 0
BBX 5 4 0 5
BITMAP
20
f8
70
50
ENDCHAR
STARTCHAR plus
ENCODING 43
SWIDTH 560 0
DWIDTH 7 0
BBX 6 5 0 1
BITMAP
30
30
fc
30
30
ENDCHAR
STARTCHAR comma
ENCODING 44
SWIDTH 320 0
DWIDTH 4 0
BBX 2 4 1 -2
BITMAP
c0
c0
40
80
ENDCHAR
STARTCHAR minus
ENCODING 45
SWIDTH 640 0
DWIDTH 8 0
BBX 5 1 1 3
BITMAP
f8
ENDCHAR
STARTCHAR period
ENCODING 46
SWIDTH 320 0
DWIDTH 4 0
BBX 2 2 1 0
BITMAP
c0
c0
ENDCHAR
STARTCHAR slash
ENCODING 47
SWIDTH 320 0
DWIDTH 4 0
BBX 4 9 0 0
BITMAP
30
30
20
60
60
40
40
c0
c0
ENDCHAR
STARTCHAR 0
ENCODING 48
SWIDTH 560 0
DWIDTH 7 0
BBX 6 9 0 0
BITMAP
78
cc
cc
cc
cc
cc
cc
cc
78
ENDCHAR
STARTCHAR 1
ENCODING 49
SWIDTH 560 0
DWIDTH 7 0
BBX 4 9 0 0
BITMAP
30
f0
30
30
30
30
30
30
30
ENDCHAR
STARTCHAR 2
ENCODING 50
SWIDTH 560 0
DWIDTH 7 0
BBX 6 9 0 0
BITMAP
78
cc
0c
18
30
60
c0
c0
fc
ENDCHAR
STARTCHAR 3
ENCODING 51
SWIDTH 560 0
DWIDTH 7 0
BBX 6 9 0 0
BITMAP
78
cc
0c
38
0c
0c
0c
cc
78
ENDCHAR
STARTCHAR 4
ENCODING 52
SWIDTH 560 0
DWIDTH 7 0
BBX 7 9 0 0
BITMAP
0c
1c
2c
2c
4c
8c
fe
0c
0c
ENDCHAR
STARTCHAR 5
ENCODING 53
SWIDTH 560 0
DWIDTH 7 0
BBX 6 9 0 0
BITMAP
7c
60
c0
f8
0c
0c
cc
cc
78
ENDCHAR
STARTCHAR 6
ENCODING 54
SWIDTH 560 0
DWIDTH 7 0
BBX 6 9 0 0
BITMAP
78
cc
c0
c0
f8
cc
cc
cc
78
ENDCHAR
STARTCHAR 7
ENCODING 55
SWIDTH 560 0
DWIDTH 7 0
BBX 6 9 0 0
BITMAP
fc
0c
18
18
30
30
30
60
60
ENDCHAR
STARTCHAR 8
ENCODING 56
SWIDTH 560 0
DWIDTH 7 0
BBX 6 9 0 0
BITMAP
78
cc
cc
78
cc
cc
cc
cc
78
ENDCHAR
STARTCHAR 9
ENCODING 57
SWIDTH 560 0
DWIDTH 7 0
BBX 6 9 0 0
BITMAP
78
cc
cc
cc
7c
0c
0c
cc
78
ENDCHAR
STARTCHAR colon
ENCODING 58
SWIDTH 320 0
DWIDTH 4 0
BBX 2 7 1 0
BITMAP
c0
c0
00
00
00
c0
c0
ENDCHAR
STARTCHAR semicolon
ENCODING 59
SWIDTH 320 0
DWIDTH 4 0
BBX 2 9 1 -2
BITMAP
c0
c0
00
00
00
c0
c0
40
80
ENDCHAR
STARTCHAR less
ENCODING 60
SWIDTH 560 0
DWIDTH 7 0
BBX 5 5 1 1
BITMAP
18
70
c0
70
18
ENDCHAR
STARTCHAR equal
ENCODING 61
SWIDTH 560 0
DWIDTH 7 0
BBX 6 3 0 2
BITMAP
fc
00
fc
ENDCHAR
STARTCHAR greater
ENCODING 62
SWIDTH 560 0
DWIDTH 7 0
BBX 5 5 1 1
BITMAP
c0
70
18
70
c0
ENDCHAR
STARTCHAR question
ENCODING 63
SWIDTH 640 0
DWIDTH 8 0
BBX 6 9 1 0
BITMAP
78
cc
cc
18
30
30
00
30
30
ENDCHAR
STARTCHAR at
ENCODING 64
SWIDTH 960 0
DWIDTH 12 0
BBX 10 10 1 -1
BITMAP
1f00
6080
4040
8d40
9240
a240
a680
9b00
4000
3e00
ENDCHAR
STARTCHAR A
ENCODING 65
SWIDTH 640 0
DWIDTH 8 0
BBX 8 9 0 0
BITMAP
18
3c
24
66
66
7e
c3
c3
c3
ENDCHAR
STARTCHAR B
ENCODING 66
SWIDTH 720 0
DWIDTH 9 0
BBX 7 9 1 0
BITMAP
fc
c6
c6
c6
fc
c6
c6
c6
fc
ENDCHAR
STARTCHAR C
ENCODING 67
SWIDTH 640 0
DWIDTH 8 0
BBX 7 9 1 0
BITMAP
3c
66
c0
c0
c0
c0
c0
66
3c
ENDCHAR
STARTCHAR D
ENCODING 68
SWIDTH 720 0
DWIDTH 9 0
BBX 7 9 1 0
BITMAP
f8
cc
c6
c6
c6
c6
c6
cc
f8
ENDCHAR
STARTCHAR E
ENCODING 69
SWIDTH 640 0
DWIDTH 8 0
BBX 6 9 1 0
BITMAP
fc
c0
c0
c0
fc
c0
c0
c0
fc
ENDCHAR
STARTCHAR F
ENCODING 70
SWIDTH 560 0
DWIDTH 7 0
BBX 6 9 1 0
BITMAP
fc
c0
c0
c0
f8
c0
c0
c0
c0
ENDCHAR
STARTCHAR G
ENCODING 71
SWIDTH 800 0
DWIDTH 10 0
BBX 8 9 1 0
BITMAP
3e
63
c0
c0
cf
c3
c3
63
3d
ENDCHAR
STARTCHAR H
ENCODING 72
SWIDTH 720 0
DWIDTH 9 0
BBX 7 9 1 0
BITMAP
c6
c6
c6
c6
fe
c6
c6
c6
c6
ENDCHAR
STARTCHAR I
ENCODING 73
SWIDTH 320 0
DWIDTH 4 0
BBX 2 9 1 0
BITMAP
c0
c0
c0
c0
c0
c0
c0
c0
c0
ENDCHAR
STARTCHAR J
ENCODING 74
SWIDTH 560 0
DWIDTH 7 0
BBX 6 9 0 0
BITMAP
0c
0c
0c
0c
0c
0c
cc
cc
78
ENDCHAR
STARTCHAR K
ENCODING 75
SWIDTH 720 0
DWIDTH 9 0
BBX 8 9 1 0
BITMAP
c6
cc
d8
f0
f0
d8
cc
c6
c3
ENDCHAR
STARTCHAR L
ENCODING 76
SWIDTH 560 0
DWIDTH 7 0
BBX 6 9 1 0
BITMAP
c0
c0
c0
c0
c0
c0
c0
c0
fc
ENDCHAR
STARTCHAR M
ENCODING 77
SWIDTH 880 0
DWIDTH 11 0
BBX 9 9 1 0
BITMAP
c180
c180
e380
e380
f780
d580
dd80
c980
c980
ENDCHAR
STARTCHAR N
ENCODING 78
SWIDTH 720 0
DWIDTH 9 0
BBX 7 9 1 0
BITMAP
c6
e6
e6
d6
d6
ce
ce
c6
c6
ENDCHAR
STARTCHAR O
ENCODING 79
SWIDTH 800 0
DWIDTH 10 0
BBX 8 9 1 0
BITMAP
3c
66
c3
c3
c3
c3
c3
66
3c
ENDCHAR
STARTCHAR P
ENCODING 80
SWIDTH 640 0
DWIDTH 8 0
BBX 7 9 1 0
BITMAP
fc
c6
c6
c6
fc
c0
c0
c0
c0
ENDCHAR
STARTCHAR Q
ENCODING 81
SWIDTH 800 0
DWIDTH 10 0
BBX 8 9 1 0
BITMAP
3c
66
c3
c3
c3
cb
cf
66
3f
ENDCHAR
STARTCHAR R
ENCODING 82
SWIDTH 720 0
DWIDTH 9 0
BBX 7 9 1 0
BITMAP
fc
c6
c6
c6
fc
cc
c6
c6
c6
ENDCHAR
STARTCHAR S
ENCODING 83
SWIDTH 720 0
DWIDTH 9 0
BBX 7 9 1 0
BITMAP
7c
c6
c6
70
1c
0e
c6
c6
7c
ENDCHAR
STARTCHAR T
ENCODING 84
SWIDTH 640 0
DWIDTH 8 0
BBX 8 9 0 0
BITMAP
ff
18
18
18
18
18
18
18
18
ENDCHAR
STARTCHAR U
ENCODING 85
SWIDTH 720 0
DWIDTH 9 0
BBX 7 9 1 0
BITMAP
c6
c6
c6
c6
c6
c6
c6
6c
7c
ENDCHAR
STARTCHAR V
ENCODING 86
SWIDTH 640 0
DWIDTH 8 0
BBX 8 9 0 0
BITMAP
c3
c3
66
66
66
24
3c
18
18
ENDCHAR
STARTCHAR W
ENCODING 87
SWIDTH 800 0
DWIDTH 10 0
BBX 10 9 0 0
BITMAP
ccc0
ccc0
ccc0
4c80
6d80
6d80
3300
3300
3300
ENDCHAR
STARTCHAR X
ENCODING 88
SWIDTH 640 0
DWIDTH 8 0
BBX 8 9 0 0
BITMAP
c3
c3
66
3c
18
3c
66
c3
c3
ENDCHAR
STARTCHAR Y
ENCODING 89
SWIDTH 640 0
DWIDTH 8 0
BBX 8 9 0 0
BITMAP
c3
c3
66
66
3c
18
18
18
18
ENDCHAR
STARTCHAR Z
ENCODING 90
SWIDTH 560 0
DWIDTH 7 0
BBX 7 9 0 0
BITMAP
fe
06
0c
18
30
30
60
c0
fe
ENDCHAR
STARTCHAR bracketleft
ENCODING 91
SWIDTH 320 0
DWIDTH 4 0
BBX 3 12 1 -3
BITMAP
e0
c0
c0
c0
c0
c0
c0
c0
c0
c0
c0
e0
ENDCHAR
STARTCHAR backslash
ENCODING 92
SWIDTH 320 0
DWIDTH 4 0
BBX 4 9 0 0
BITMAP
c0
c0
40
60
60
20
20
30
30
ENDCHAR
STARTCHAR bracketright
ENCODING 93
SWIDTH 320 0
DWIDTH 4 0
BBX 3 12 0 -3
BITMAP
e0
60
60
60
60
60
60
60
60
60
60
e0
ENDCHAR
STARTCHAR asciicircum
ENCODING 94
SWIDTH 560 0
DWIDTH 7 0
BBX 7 4 0 5
BITMAP
10
38
6c
c6
ENDCHAR
STARTCHAR underscore
ENCODING 95
SWIDTH 560 0
DWIDTH 7 0
BBX 7 1 0 -3
BITMAP
fe
ENDCHAR
STARTCHAR grave
ENCODING 96
SWIDTH 320 0
DWIDTH 4 0
BBX 2 3 1 6
BITMAP
40
80
c0
ENDCHAR
STARTCHAR a
ENCODING 97
SWIDTH 560 0
DWIDTH 7 0
BBX 7 7 0 0
BITMAP
78
cc
0c
7c
cc
cc
76
ENDCHAR
STARTCHAR b
ENCODING 98
SWIDTH 560 0
DWIDTH 7 0
BBX 6 9 0 0
BITMAP
c0
c0
d8
ec
cc
cc
cc
ec
d8
ENDCHAR
STARTCHAR c
ENCODING 99
SWIDTH 560 0
DWIDTH 7 0
BBX 6 7 0 0
BITMAP
78
cc
c0
c0
c0
cc
78
ENDCHAR
STARTCHAR d
ENCODING 100
SWIDTH 560 0
DWIDTH 7 0
BBX 6 9 0 0
BITMAP
0c
0c
6c
dc
cc
cc
cc
dc
6c
ENDCHAR
STARTCHAR e
ENCODING 101
SWIDTH 560 0
DWIDTH 7 0
BBX 6 7 0 0
BITMAP
78
cc
cc
fc
c0
cc
78
ENDCHAR
STARTCHAR f
ENCODING 102
SWIDTH 400 0
DWIDTH 5 0
BBX 5 9 0 0
BITMAP
38
60
f0
60
60
60
60
60
60
ENDCHAR
STARTCHAR g
ENCODING 103
SWIDTH 560 0
DWIDTH 7 0
BBX 6 10 0 -3
BITMAP
6c
dc
cc
cc
cc
dc
6c
0c
cc
78
ENDCHAR
STARTCHAR h
ENCODING 104
SWIDTH 560 0
DWIDTH 7 0
BBX 6 9 0 0
BITMAP
c0
c0
d8
ec
cc
cc
cc
cc
cc
ENDCHAR
STARTCHAR i
ENCODING 105
SWIDTH 240 0
DWIDTH 3 0
BBX 2 9 0 0
BITMAP
c0
00
c0
c0
c0
c0
c0
c0
c0
ENDCHAR
STARTCHAR j
ENCODING 106
SWIDTH 240 0
DWIDTH 3 0
BBX 3 12 -1 -3
BITMAP
60
00
60
60
60
60
60
60
60
60
60
c0
ENDCHAR
STARTCHAR k
ENCODING 107
SWIDTH 560 0
DWIDTH 7 0
BBX 7 9 0 0
BITMAP
c0
c0
cc
d8
f0
f0
d8
cc
c6
ENDCHAR
STARTCHAR l
ENCODING 108
SWIDTH 240 0
DWIDTH 3 0
BBX 2 9 0 0
BITMAP
c0
c0
c0
c0
c0
c0
c0
c0
c0
ENDCHAR
STARTCHAR m
ENCODING 109
SWIDTH 880 0
DWIDTH 11 0
BBX 10 7 0 0
BITMAP
bb80
ccc0
ccc0
ccc0
ccc0
ccc0
ccc0
ENDCHAR
STARTCHAR n
ENCODING 110
SWIDTH 560 0
DWIDTH 7 0
BBX 6 7 0 0
BITMAP
d8
ec
cc
cc
cc
cc
cc
ENDCHAR
STARTCHAR o
ENCODING 111
SWIDTH 560 0
DWIDTH 7 0
BBX 6 7 0 0
BITMAP
78
cc
cc
cc
cc
cc
78
ENDCHAR
STARTCHAR p
ENCODING 112
SWIDTH 560 0
DWIDTH 7 0
BBX 6 10 0 -3
BITMAP
d8
ec
cc
cc
cc
ec
d8
c0
c0
c0
ENDCHAR
STARTCHAR q
ENCODING 113
SWIDTH 560 0
DWIDTH 7 0
BBX 6 10 0 -3
BITMAP
74
dc
cc
cc
cc
dc
6c
0c
0c
0c
ENDCHAR
STARTCHAR r
ENCODING 114
SWIDTH 400 0
DWIDTH 5 0
BBX 5 7 0 0
BITMAP
d8
f8
e0
c0
c0
c0
c0
ENDCHAR
STARTCHAR s
ENCODING 115
SWIDTH 560 0
DWIDTH 7 0
BBX 6 7 0 0
BITMAP
78
cc
e0
38
1c
cc
78
ENDCHAR
STARTCHAR t
ENCODING 116
SWIDTH 400 0
DWIDTH 5 0
BBX 5 9 0 0
BITMAP
60
60
f0
60
60
60
60
68
30
ENDCHAR
STARTCHAR u
ENCODING 117
SWIDTH 560 0
DWIDTH 7 0
BBX 6 7 0 0
BITMAP
cc
cc
cc
cc
cc
dc
6c
ENDCHAR
STARTCHAR v
ENCODING 118
SWIDTH 640 0
DWIDTH 8 0
BBX 7 7 0 0
BITMAP
c6
c6
6c
6c
38
38
10
ENDCHAR
STARTCHAR w
ENCODING 119
SWIDTH 880 0
DWIDTH 11 0
BBX 10 7 0 0
BITMAP
ccc0
ccc0
6d80
6d80
6d80
3300
3300
ENDCHAR
STARTCHAR x
ENCODING 120
SWIDTH 560 0
DWIDTH 7 0
BBX 6 7 0 0
BITMAP
cc
cc
78
30
78
cc
cc
ENDCHAR
STARTCHAR y
ENCODING 121
SWIDTH 640 0
DWIDTH 8 0
BBX 7 10 0 -3
BITMAP
c6
c6
6c
6c
38
38
18
10
30
60
ENDCHAR
STARTCHAR z
ENCODING 122
SWIDTH 480 0
DWIDTH 6 0
BBX 5 7 0 0
BITMAP
f8
18
30
20
60
c0
f8
ENDCHAR
STARTCHAR braceleft
ENCODING 123
SWIDTH 400 0
DWIDTH 5 0
BBX 4 12 0 -3
BITMAP
30
60
60
60
60
c0
60
60
60
60
60
30
ENDCHAR
STARTCHAR bar
ENCODING 124
SWIDTH 320 0
DWIDTH 4 0
BBX 2 12 1 -3
BITMAP
c0
c0
c0
c0
c0
c0
c0
c0
c0
c0
c0
c0
ENDCHAR
STARTCHAR braceright
ENCODING 125
SWIDTH 400 0
DWIDTH 5 0
BBX 4 12 0 -3
BITMAP
c0
60
60
60
60
30
60
60
60
60
60
c0
ENDCHAR
STARTCHAR asciitilde
ENCODING 126
SWIDTH 560 0
DWIDTH 7 0
BBX 7 2 0 3
BITMAP
76
dc
ENDCHAR
STARTCHAR nobreakspace
ENCODING 160
SWIDTH 720 0
DWIDTH 9 0
BBX 0 0 0 0
BITMAP
ENDCHAR
STARTCHAR exclamdown
ENCODING 161
SWIDTH 640 0
DWIDTH 8 0
BBX 7 8 0 0
BITMAP
7c
c6
66
c6
c6
c6
c6
c6
ENDCHAR
STARTCHAR cent
ENCODING 162
SWIDTH 640 0
DWIDTH 8 0
BBX 7 8 0 0
BITMAP
76
be
5e
36
36
36
36
7e
ENDCHAR
STARTCHAR sterling
ENCODING 163
SWIDTH 640 0
DWIDTH 8 0
BBX 7 8 0 0
BITMAP
76
ae
fe
be
76
36
36
7e
ENDCHAR
STARTCHAR currency
ENCODING 164
SWIDTH 640 0
DWIDTH 8 0
BBX 7 8 0 0
BITMAP
7c
c6
c6
d6
ee
f6
66
66
ENDCHAR
STARTCHAR yen
ENCODING 165
SWIDTH 640 0
DWIDTH 8 0
BBX 7 8 0 0
BITMAP
6c
fe
c6
f6
ee
f6
66
66
ENDCHAR
STARTCHAR brokenbar
ENCODING 166
SWIDTH 720 0
DWIDTH 9 0
BBX 8 8 0 0
BITMAP
73
ab
db
bb
7b
5f
5f
33
ENDCHAR
STARTCHAR section
ENCODING 167
SWIDTH 560 0
DWIDTH 7 0
BBX 6 8 0 0
BITMAP
18
2c
1c
0c
cc
6c
3c
1c
ENDCHAR
STARTCHAR diaeresis
ENCODING 168
SWIDTH 560 0
DWIDTH 7 0
BBX 6 8 0 0
BITMAP
78
cc
0c
2c
5c
3c
1c
0c
ENDCHAR
STARTCHAR copyright
ENCODING 169
SWIDTH 640 0
DWIDTH 8 0
BBX 8 8 0 0
BITMAP
7c
c6
06
66
ae
7d
37
36
ENDCHAR
STARTCHAR ordfeminine
ENCODING 170
SWIDTH 640 0
DWIDTH 8 0
BBX 7 8 0 0
BITMAP
76
be
5c
36
36
36
36
7e
ENDCHAR
STARTCHAR guillemotleft
ENCODING 171
SWIDTH 640 0
DWIDTH 8 0
BBX 7 8 0 0
BITMAP
76
ae
fc
be
76
36
36
7e
ENDCHAR
STARTCHAR notsign
ENCODING 172
SWIDTH 880 0
DWIDTH 11 0
BBX 10 8 0 0
BITMAP
7cc0
c6c0
66c0
c6c0
c6c0
eec0
d7c0
6dc0
ENDCHAR
STARTCHAR hyphen
ENCODING 173
SWIDTH 800 0
DWIDTH 10 0
BBX 9 10 0 -2
BITMAP
7980
cd80
6d80
cd80
cd80
ed80
dd80
6700
0d80
0700
ENDCHAR
STARTCHAR registered
ENCODING 174
SWIDTH 720 0
DWIDTH 9 0
BBX 8 11 0 -3
BITMAP
3e
63
33
63
63
e3
a3
53
33
5b
37
ENDCHAR
STARTCHAR macron
ENCODING 175
SWIDTH 720 0
DWIDTH 9 0
BBX 8 11 0 -3
BITMAP
3e
63
33
63
63
e3
a3
63
6b
bf
53
ENDCHAR
STARTCHAR degree
ENCODING 176
SWIDTH 560 0
DWIDTH 7 0
BBX 7 11 0 -3
BITMAP
76
cc
f8
2c
5c
3c
0c
2c
40
ac
5c
ENDCHAR
STARTCHAR plusminus
ENCODING 177
SWIDTH 720 0
DWIDTH 9 0
BBX 8 8 0 0
BITMAP
56
ff
af
7b
33
33
33
33
ENDCHAR
STARTCHAR twosuperior
ENCODING 178
SWIDTH 960 0
DWIDTH 12 0
BBX 11 8 0 0
BITMAP
6e60
db60
c360
db60
eb60
df60
fbe0
66e0
ENDCHAR
STARTCHAR threesuperior
ENCODING 179
SWIDTH 960 0
DWIDTH 12 0
BBX 11 8 0 0
BITMAP
7cc0
c6c0
66c0
c6c0
c6c0
e7c0
d7a0
66c0
ENDCHAR
STARTCHAR acute
ENCODING 180
SWIDTH 720 0
DWIDTH 9 0
BBX 8 8 0 0
BITMAP
7e
c3
db
ef
df
db
73
63
ENDCHAR
STARTCHAR mu
ENCODING 181
SWIDTH 720 0
DWIDTH 9 0
BBX 8 8 0 0
BITMAP
66
db
c3
db
eb
db
73
63
ENDCHAR
STARTCHAR paragraph
ENCODING 182
SWIDTH 640 0
DWIDTH 8 0
BBX 7 8 0 0
BITMAP
7c
c6
66
c6
c6
e6
d6
66
ENDCHAR
STARTCHAR periodcentered
ENCODING 183
SWIDTH 720 0
DWIDTH 9 0
BBX 8 8 0 0
BITMAP
66
bf
7b
33
33
33
33
33
ENDCHAR
STARTCHAR cedilla
ENCODING 184
SWIDTH 560 0
DWIDTH 7 0
BBX 6 8 0 0
BITMAP
7c
c0
f8
0c
6c
6c
6c
fc
ENDCHAR
STARTCHAR onesuperior
ENCODING 185
SWIDTH 720 0
DWIDTH 9 0
BBX 8 8 0 0
BITMAP
46
a6
66
66
66
6d
75
66
ENDCHAR
STARTCHAR masculine
ENCODING 186
SWIDTH 720 0
DWIDTH 9 0
BBX 8 8 0 0
BITMAP
63
b3
73
33
33
33
33
7f
ENDCHAR
STARTCHAR guillemotright
ENCODING 187
SWIDTH 720 0
DWIDTH 9 0
BBX 8 11 0 0
BITMAP
03
03
03
63
b3
73
33
33
33
33
7f
ENDCHAR
STARTCHAR onequarter
ENCODING 188
SWIDTH 640 0
DWIDTH 8 0
BBX 7 8 0 0
BITMAP
66
d6
e6
c6
d6
fe
ee
c6
ENDCHAR
STARTCHAR onehalf
ENCODING 189
SWIDTH 640 0
DWIDTH 8 0
BBX 7 11 0 0
BITMAP
06
06
06
66
d6
e6
c6
d6
fe
ee
c6
ENDCHAR
STARTCHAR threequarters
ENCODING 190
SWIDTH 720 0
DWIDTH 9 0
BBX 8 8 0 0
BITMAP
43
a3
eb
6b
7f
77
77
63
ENDCHAR
STARTCHAR questiondown
ENCODING 191
SWIDTH 720 0
DWIDTH 9 0
BBX 8 11 0 0
BITMAP
03
03
03
43
a3
eb
6b
7f
7f
77
63
ENDCHAR
STARTCHAR Agrave
ENCODING 192
SWIDTH 640 0
DWIDTH 8 0
BBX 7 8 0 0
BITMAP
3c
66
36
66
66
e6
a6
46
ENDCHAR
STARTCHAR Aacute
ENCODING 193
SWIDTH 720 0
DWIDTH 9 0
BBX 8 8 0 0
BITMAP
63
b3
73
33
7b
bf
b7
73
ENDCHAR
STARTCHAR Acircumflex
ENCODING 194
SWIDTH 560 0
DWIDTH 7 0
BBX 6 8 0 0
BITMAP
6c
bc
ec
cc
6c
cc
cc
fc
ENDCHAR
STARTCHAR Atilde
ENCODING 195
SWIDTH 560 0
DWIDTH 7 0
BBX 6 8 0 0
BITMAP
7c
c0
f8
0c
0c
1c
2c
18
ENDCHAR
STARTCHAR Adiaeresis
ENCODING 196
SWIDTH 640 0
DWIDTH 8 0
BBX 7 10 0 -2
BITMAP
7c
c6
66
c6
c6
e6
d6
66
06
06
ENDCHAR
STARTCHAR Aring
ENCODING 197
SWIDTH 640 0
DWIDTH 8 0
BBX 7 8 0 0
BITMAP
7c
c6
76
de
ce
e6
d6
66
ENDCHAR
STARTCHAR AE
ENCODING 198
SWIDTH 720 0
DWIDTH 9 0
BBX 8 10 0 -2
BITMAP
3e
63
33
63
63
e3
a3
43
03
03
ENDCHAR
STARTCHAR Ccedilla
ENCODING 199
SWIDTH 560 0
DWIDTH 7 0
BBX 6 8 0 0
BITMAP
78
cc
0c
0c
0c
1c
2c
18
ENDCHAR
STARTCHAR Egrave
ENCODING 200
SWIDTH 640 0
DWIDTH 8 0
BBX 7 8 0 0
BITMAP
7e
cc
c6
f6
ee
f6
66
66
ENDCHAR
STARTCHAR Eacute
ENCODING 201
SWIDTH 720 0
DWIDTH 9 0
BBX 8 8 0 0
BITMAP
63
b3
73
3b
3f
33
33
7f
ENDCHAR
STARTCHAR Ecircumflex
ENCODING 202
SWIDTH 640 0
DWIDTH 8 0
BBX 7 8 0 0
BITMAP
76
cc
76
de
ce
e6
d6
66
ENDCHAR
STARTCHAR Ediaeresis
ENCODING 203
SWIDTH 720 0
DWIDTH 9 0
BBX 8 8 0 0
BITMAP
66
b5
7e
3f
3b
33
33
33
ENDCHAR
STARTCHAR Igrave
ENCODING 204
SWIDTH 720 0
DWIDTH 9 0
BBX 8 8 0 0
BITMAP
45
aa
e7
6b
7f
7f
77
63
ENDCHAR
STARTCHAR Iacute
ENCODING 205
SWIDTH 560 0
DWIDTH 7 0
BBX 6 8 0 0
BITMAP
78
cc
0c
6c
dc
ec
cc
fc
ENDCHAR
STARTCHAR Icircumflex
ENCODING 206
SWIDTH 560 0
DWIDTH 7 0
BBX 6 8 0 0
BITMAP
74
88
7c
6c
dc
ec
cc
fc
ENDCHAR
STARTCHAR Idiaeresis
ENCODING 207
SWIDTH 640 0
DWIDTH 8 0
BBX 7 8 0 0
BITMAP
66
d6
e6
ce
76
06
06
1c
ENDCHAR
STARTCHAR ETH
ENCODING 208
SWIDTH 640 0
DWIDTH 8 0
BBX 7 8 0 0
BITMAP
40
a6
7c
00
00
40
a6
7c
ENDCHAR
STARTCHAR Ntilde
ENCODING 209
SWIDTH 0 0
DWIDTH 0 0
BBX 7 3 -7 9
BITMAP
40
a6
7c
ENDCHAR
STARTCHAR Ograve
ENCODING 210
SWIDTH 560 0
DWIDTH 7 0
BBX 6 8 0 0
BITMAP
78
cc
0c
0c
0c
0c
0c
0c
ENDCHAR
STARTCHAR Oacute
ENCODING 211
SWIDTH 560 0
DWIDTH 7 0
BBX 11 12 -5 0
BITMAP
6000
9000
6000
0000
03c0
0660
0060
0060
0060
0060
0060
0060
ENDCHAR
STARTCHAR Ocircumflex
ENCODING 212
SWIDTH 0 0
DWIDTH 0 0
BBX 6 2 -7 9
BITMAP
78
fc
ENDCHAR
STARTCHAR Otilde
ENCODING 213
SWIDTH 0 0
DWIDTH 0 0
BBX 6 3 -7 9
BITMAP
0c
7c
fc
ENDCHAR
STARTCHAR Odiaeresis
ENCODING 214
SWIDTH 0 0
DWIDTH 0 0
BBX 7 3 -8 9
BITMAP
0c
7a
fc
ENDCHAR
STARTCHAR multiply
ENCODING 215
SWIDTH 0 0
DWIDTH 0 0
BBX 6 3 -7 9
BITMAP
14
7c
fc
ENDCHAR
STARTCHAR Ooblique
ENCODING 216
SWIDTH 0 0
DWIDTH 0 0
BBX 3 3 -4 -4
BITMAP
e0
e0
60
ENDCHAR
STARTCHAR Ugrave
ENCODING 217
SWIDTH 0 0
DWIDTH 0 0
BBX 6 3 -7 -4
BITMAP
ec
ec
7c
ENDCHAR
STARTCHAR Uacute
ENCODING 218
SWIDTH 0 0
DWIDTH 0 0
BBX 2 2 -3 -3
BITMAP
c0
c0
ENDCHAR
STARTCHAR Udiaeresis
ENCODING 220
SWIDTH 720 0
DWIDTH 9 0
BBX 7 3 1 -2
BITMAP
00
fe
82
ENDCHAR
STARTCHAR ssharp
ENCODING 223
SWIDTH 720 0
DWIDTH 9 0
BBX 7 11 1 -1
BITMAP
10
fc
d6
d6
d6
fc
d6
d6
d6
fc
10
ENDCHAR
STARTCHAR agrave
ENCODING 224
SWIDTH 400 0
DWIDTH 5 0
BBX 4 8 0 0
BITMAP
c0
c0
c0
c0
c0
e0
d0
60
ENDCHAR
STARTCHAR aacute
ENCODING 225
SWIDTH 720 0
DWIDTH 9 0
BBX 8 8 0 0
BITMAP
cc
cc
cc
cc
cc
ee
dd
66
ENDCHAR
STARTCHAR acircumflex
ENCODING 226
SWIDTH 560 0
DWIDTH 7 0
BBX 6 13 0 0
BITMAP
7c
c0
f0
18
18
18
18
18
18
18
18
14
08
ENDCHAR
STARTCHAR atilde
ENCODING 227
SWIDTH 560 0
DWIDTH 7 0
BBX 6 13 0 0
BITMAP
70
d8
d8
b8
58
18
18
18
18
18
18
14
08
ENDCHAR
STARTCHAR adiaeresis
ENCODING 228
SWIDTH 560 0
DWIDTH 7 0
BBX 6 13 0 0
BITMAP
98
f8
58
18
18
18
18
18
18
18
18
14
08
ENDCHAR
STARTCHAR aring
ENCODING 229
SWIDTH 560 0
DWIDTH 7 0
BBX 6 11 0 -2
BITMAP
78
cc
0c
0c
0c
0c
0c
0c
0c
0c
0c
ENDCHAR
STARTCHAR ae
ENCODING 230
SWIDTH 640 0
DWIDTH 8 0
BBX 7 11 0 -2
BITMAP
6c
d6
c6
f6
d6
66
06
06
06
06
06
ENDCHAR
STARTCHAR ccedilla
ENCODING 231
SWIDTH 0 0
DWIDTH 0 0
BBX 6 5 -6 9
BITMAP
0c
78
c0
a8
78
ENDCHAR
STARTCHAR egrave
ENCODING 232
SWIDTH 0 0
DWIDTH 0 0
BBX 1 2 -2 13
BITMAP
80
80
ENDCHAR
STARTCHAR eacute
ENCODING 233
SWIDTH 0 0
DWIDTH 0 0
BBX 5 2 -5 13
BITMAP
d8
70
ENDCHAR
STARTCHAR ecircumflex
ENCODING 234
SWIDTH 0 0
DWIDTH 0 0
BBX 6 2 -6 13
BITMAP
f4
98
ENDCHAR
STARTCHAR ediaeresis
ENCODING 235
SWIDTH 0 0
DWIDTH 0 0
BBX 3 3 -3 13
BITMAP
40
e0
40
ENDCHAR
STARTCHAR igrave
ENCODING 236
SWIDTH 0 0
DWIDTH 0 0
BBX 3 4 -3 13
BITMAP
20
60
80
c0
ENDCHAR
STARTCHAR iacute
ENCODING 237
SWIDTH 0 0
DWIDTH 0 0
BBX 4 3 -5 9
BITMAP
60
90
60
ENDCHAR
STARTCHAR icircumflex
ENCODING 238
SWIDTH 0 0
DWIDTH 0 0
BBX 5 4 -6 9
BITMAP
78
e0
90
40
ENDCHAR
STARTCHAR idiaeresis
ENCODING 239
SWIDTH 720 0
DWIDTH 9 0
BBX 8 7 0 0
BITMAP
7e
c3
db
db
db
c3
7e
ENDCHAR
STARTCHAR eth
ENCODING 240
SWIDTH 720 0
DWIDTH 9 0
BBX 8 7 0 0
BITMAP
3c
66
c3
c3
c3
66
3c
ENDCHAR
STARTCHAR ntilde
ENCODING 241
SWIDTH 720 0
DWIDTH 9 0
BBX 8 8 0 -1
BITMAP
3c
66
c3
f3
eb
73
06
0c
ENDCHAR
STARTCHAR ograve
ENCODING 242
SWIDTH 880 0
DWIDTH 11 0
BBX 10 10 0 0
BITMAP
c000
6000
6000
6000
6d80
7fc0
76c0
68c0
60c0
7fc0
ENDCHAR
STARTCHAR oacute
ENCODING 243
SWIDTH 720 0
DWIDTH 9 0
BBX 8 7 0 0
BITMAP
66
db
c3
c3
e3
d3
63
ENDCHAR
STARTCHAR ocircumflex
ENCODING 244
SWIDTH 720 0
DWIDTH 9 0
BBX 8 9 0 0
BITMAP
03
03
07
7e
c8
d4
d8
cc
77
ENDCHAR
STARTCHAR otilde
ENCODING 245
SWIDTH 720 0
DWIDTH 9 0
BBX 8 9 0 0
BITMAP
03
0b
17
7e
c8
d4
d8
cc
77
ENDCHAR
STARTCHAR odiaeresis
ENCODING 246
SWIDTH 720 0
DWIDTH 9 0
BBX 8 9 0 0
BITMAP
c0
60
60
7e
63
03
63
53
3e
ENDCHAR
STARTCHAR division
ENCODING 247
SWIDTH 800 0
DWIDTH 10 0
BBX 9 9 0 0
BITMAP
0000
0300
0180
6d80
ff80
db80
e380
d300
6200
ENDCHAR
STARTCHAR oslash
ENCODING 248
SWIDTH 720 0
DWIDTH 9 0
BBX 8 9 0 0
BITMAP
03
03
03
7e
c0
c0
d6
f5
6e
ENDCHAR
STARTCHAR ugrave
ENCODING 249
SWIDTH 720 0
DWIDTH 9 0
BBX 8 9 0 0
BITMAP
03
03
07
7e
f8
cc
ee
d7
63
ENDCHAR
STARTCHAR uacute
ENCODING 250
SWIDTH 800 0
DWIDTH 10 0
BBX 9 8 0 0
BITMAP
4d80
ad80
cd80
dd80
7d80
0d80
0d80
1b00
ENDCHAR
STARTCHAR ucircumflex
ENCODING 251
SWIDTH 880 0
DWIDTH 11 0
BBX 10 7 0 0
BITMAP
6000
d400
e500
cfc0
ca80
7a00
3000
ENDCHAR
ENDFONT
